<svg width="24" height="25" viewBox="0 0 24 25" fill="none" xmlns="http://www.w3.org/2000/svg">
<g id="account-box">
<path id="Vector" d="M6 17.4131C6 15.4131 10 14.3131 12 14.3131C14 14.3131 18 15.4131 18 17.4131V18.4131H6M15 9.41309C15 10.2087 14.6839 10.9718 14.1213 11.5344C13.5587 12.097 12.7956 12.4131 12 12.4131C11.2044 12.4131 10.4413 12.097 9.87868 11.5344C9.31607 10.9718 9 10.2087 9 9.41309C9 8.61744 9.31607 7.85437 9.87868 7.29177C10.4413 6.72916 11.2044 6.41309 12 6.41309C12.7956 6.41309 13.5587 6.72916 14.1213 7.29177C14.6839 7.85437 15 8.61744 15 9.41309ZM3 5.41309V19.4131C3 19.9435 3.21071 20.4522 3.58579 20.8273C3.96086 21.2024 4.46957 21.4131 5 21.4131H19C19.5304 21.4131 20.0391 21.2024 20.4142 20.8273C20.7893 20.4522 21 19.9435 21 19.4131V5.41309C21 4.88265 20.7893 4.37394 20.4142 3.99887C20.0391 3.6238 19.5304 3.41309 19 3.41309H5C3.89 3.41309 3 4.31309 3 5.41309Z" fill="#AD844C"/>
</g>
</svg>
