<svg width="80" height="80" viewBox="0 0 80 80" fill="none" xmlns="http://www.w3.org/2000/svg">
<g id="account-circle">
<mask id="mask0_731_6393" style="mask-type:alpha" maskUnits="userSpaceOnUse" x="10" y="22" width="60" height="37">
<path id="Vector" d="M40 22C42.3206 22 44.5462 22.9219 46.1872 24.5628C47.8281 26.2038 48.75 28.4294 48.75 30.75C48.75 33.0706 47.8281 35.2962 46.1872 36.9372C44.5462 38.5781 42.3206 39.5 40 39.5C37.6794 39.5 35.4538 38.5781 33.8128 36.9372C32.1719 35.2962 31.25 33.0706 31.25 30.75C31.25 28.4294 32.1719 26.2038 33.8128 24.5628C35.4538 22.9219 37.6794 22 40 22ZM22.5 28.25C23.9 28.25 25.2 28.625 26.325 29.3C25.95 32.875 27 36.425 29.15 39.2C27.9 41.6 25.4 43.25 22.5 43.25C20.5109 43.25 18.6032 42.4598 17.1967 41.0533C15.7902 39.6468 15 37.7391 15 35.75C15 33.7609 15.7902 31.8532 17.1967 30.4467C18.6032 29.0402 20.5109 28.25 22.5 28.25ZM57.5 28.25C59.4891 28.25 61.3968 29.0402 62.8033 30.4467C64.2098 31.8532 65 33.7609 65 35.75C65 37.7391 64.2098 39.6468 62.8033 41.0533C61.3968 42.4598 59.4891 43.25 57.5 43.25C54.6 43.25 52.1 41.6 50.85 39.2C53 36.425 54.05 32.875 53.675 29.3C54.8 28.625 56.1 28.25 57.5 28.25ZM23.75 53.875C23.75 48.7 31.025 44.5 40 44.5C48.975 44.5 56.25 48.7 56.25 53.875V58.25H23.75V53.875ZM10 58.25V54.5C10 51.025 14.725 48.1 21.125 47.25C19.65 48.95 18.75 51.3 18.75 53.875V58.25H10ZM70 58.25H61.25V53.875C61.25 51.3 60.35 48.95 58.875 47.25C65.275 48.1 70 51.025 70 54.5V58.25Z" fill="#AD844C"/>
</mask>
<g mask="url(#mask0_731_6393)">
<g id="Ellipse 378" filter="url(#filter0_f_731_6393)">
<ellipse cx="24.8805" cy="43.4478" rx="24.8805" ry="43.4478" transform="matrix(0.793313 0.608814 0.736025 -0.676954 9.90332 39.8242)" fill="#06DF59"/>
</g>
<g id="Ellipse 382" filter="url(#filter1_f_731_6393)">
<ellipse cx="20.9939" cy="46.0535" rx="20.9939" ry="46.0535" transform="matrix(0.753966 -0.656914 -0.649615 -0.760264 45.2725 113.517)" fill="#06774C"/>
</g>
</g>
</g>
<defs>
<filter id="filter0_f_731_6393" x="14.4352" y="-17.1312" width="94.3699" height="85.3816" filterUnits="userSpaceOnUse" color-interpolation-filters="sRGB">
<feFlood flood-opacity="0" result="BackgroundImageFix"/>
<feBlend mode="normal" in="SourceGraphic" in2="BackgroundImageFix" result="shape"/>
<feGaussianBlur stdDeviation="4.8" result="effect1_foregroundBlur_731_6393"/>
</filter>
<filter id="filter1_f_731_6393" x="-12.2689" y="17.4713" width="86.906" height="94.4822" filterUnits="userSpaceOnUse" color-interpolation-filters="sRGB">
<feFlood flood-opacity="0" result="BackgroundImageFix"/>
<feBlend mode="normal" in="SourceGraphic" in2="BackgroundImageFix" result="shape"/>
<feGaussianBlur stdDeviation="4.8" result="effect1_foregroundBlur_731_6393"/>
</filter>
</defs>
</svg>
