<svg width="100%" height="100%" viewBox="0 0 18 18" fill="none" xmlns="http://www.w3.org/2000/svg">
  <path
    d="M17.7365 14.7152L12.9574 10.1729H12.0647L9.77441 12.3497V13.1982L14.5535 17.7405C14.9051 18.0748 15.4732 18.0748 15.8249 17.7405L17.7365 15.9236C18.0881 15.5979 18.0881 15.0494 17.7365 14.7152Z"
    fill="var(--icon-color, #1D2B2A)" />
  <path
    d="M13.8322 7.87621L15.1036 6.66778L17.0152 8.4847C18.0702 7.48197 18.0702 5.85359 17.0152 4.85085L13.8231 1.81693L12.5517 3.02535V0.608499L11.9205 0L8.72851 3.03392L9.36872 3.64242H11.9205L10.6491 4.85085L11.605 5.75931L8.99902 8.23616L5.27498 4.69658V3.47959L2.55183 0.891322L0 3.31675L2.73217 5.91358H4.00357L7.72762 9.45316L6.96117 10.1816H5.04955L0.270512 14.724C-0.0811535 15.0582 -0.0811535 15.5981 0.270512 15.9324L2.18213 17.7493C2.53379 18.0836 3.10187 18.0836 3.45353 17.7493L8.23257 13.207V11.3901L12.8764 6.97631L13.8322 7.87621Z"
    fill="var(--icon-color, #1D2B2A)" />
</svg>
