<svg width="100%" height="100%" viewBox="0 0 24 24" fill="none" xmlns="http://www.w3.org/2000/svg">
  <path
    d="M20.7365 17.7152L15.9574 13.1729H15.0647L12.7744 15.3497V16.1982L17.5535 20.7405C17.9051 21.0748 18.4732 21.0748 18.8249 20.7405L20.7365 18.9236C21.0881 18.5979 21.0881 18.0494 20.7365 17.7152Z"
    fill="var(--icon-color, #1D2B2A)" />
  <path
    d="M16.8322 10.8762L18.1036 9.66778L20.0152 11.4847C21.0702 10.482 21.0702 8.85359 20.0152 7.85085L16.8231 4.81693L15.5517 6.02535V3.6085L14.9205 3L11.7285 6.03392L12.3687 6.64242H14.9205L13.6491 7.85085L14.605 8.75931L11.999 11.2362L8.27498 7.69658V6.47959L5.55183 3.89132L3 6.31675L5.73217 8.91358H7.00357L10.7276 12.4532L9.96117 13.1816H8.04955L3.27051 17.724C2.91885 18.0582 2.91885 18.5981 3.27051 18.9324L5.18213 20.7493C5.53379 21.0836 6.10187 21.0836 6.45353 20.7493L11.2326 16.207V14.3901L15.8764 9.97631L16.8322 10.8762Z"
    fill="var(--icon-color, #1D2B2A)" />
</svg>
