<svg width="100%" height="100%" viewBox="0 0 22 20" fill="none" xmlns="http://www.w3.org/2000/svg">
<path d="M18.3452 15.1966C17.1642 16.9681 12.5581 18.9114 9.60726 18.9114C6.65483 18.9114 3.66261 15.7568 0.968018 12.7201" stroke="var(--icon-color, #02FF47)" stroke-width="1.5" stroke-linecap="round" stroke-linejoin="round"/>
<path d="M0.968018 1.50082L4.50616 3.30571C5.15554 3.0224 8.50746 2.92213 10.871 4.23998" stroke="var(--icon-color, #02FF47)" stroke-width="1.5" stroke-linecap="round" stroke-linejoin="round"/>
<path d="M21.0317 12.6835C20.2073 14.205 19.2189 14.864 18.299 15.1632C16.1885 13.9361 14.1353 10.9454 13.0212 9.0928L11.1733 10.5507C10.7044 10.9289 10.1073 11.1111 9.50709 11.0591C8.90688 11.0071 8.35005 10.7249 7.95315 10.2717C7.55625 9.8184 7.35005 9.2292 7.37771 8.62738C7.40536 8.02555 7.66473 7.45774 8.10153 7.04281L10.1452 5.06603C10.6194 4.60593 11.1839 4.24926 11.8031 4.01859C12.4222 3.78791 13.0825 3.68824 13.7422 3.7259L16.362 3.87551C17.9918 2.88235 19.8237 1.79051 21.0333 1.04245" stroke="var(--icon-color, #02FF47)" stroke-width="1.5" stroke-linecap="round" stroke-linejoin="round"/>
<path d="M13.0261 9.09285C14.4331 9.53213 15.6093 9.3109 16.7568 8.51987" stroke="var(--icon-color, #02FF47)" stroke-width="1.5" stroke-linecap="round" stroke-linejoin="round"/>
</svg>
