<svg width="24" height="25" viewBox="0 0 24 25" fill="none" xmlns="http://www.w3.org/2000/svg">
<g id="calendar-star-four-points">
<path id="Vector" d="M10.74 12.6631L12 9.91309L13.25 12.6631L16 13.9131L13.25 15.1731L12 17.9131L10.74 15.1731L8 13.9131L10.74 12.6631ZM16 3.41309V1.41309H18V3.41309H19C19.53 3.41309 20.04 3.62309 20.41 4.00309C20.79 4.37309 21 4.88309 21 5.41309V19.4131C21 19.9431 20.79 20.4531 20.41 20.8231C20.04 21.2031 19.53 21.4131 19 21.4131H5C4.47 21.4131 3.96 21.2031 3.59 20.8231C3.21 20.4531 3 19.9431 3 19.4131V5.41309C3 4.88309 3.21 4.37309 3.59 4.00309C3.96 3.62309 4.47 3.41309 5 3.41309H6V1.41309H8V3.41309H16ZM5 8.41309V19.4131H19V8.41309H5Z" fill="#AD844C"/>
</g>
</svg>
