<svg width="100%" height="100%" viewBox="0 0 20 11" fill="none" xmlns="http://www.w3.org/2000/svg">
  <path
    d="M10.5909 3.63636C9.84545 1.51818 7.82727 0 5.45455 0C2.44545 0 0 2.44545 0 5.45455C0 8.46364 2.44545 10.9091 5.45455 10.9091C7.82727 10.9091 9.84545 9.39091 10.5909 7.27273H14.5455V10.9091H18.1818V7.27273H20V3.63636H10.5909ZM5.45455 7.27273C4.45455 7.27273 3.63636 6.45455 3.63636 5.45455C3.63636 4.45455 4.45455 3.63636 5.45455 3.63636C6.45455 3.63636 7.27273 4.45455 7.27273 5.45455C7.27273 6.45455 6.45455 7.27273 5.45455 7.27273Z"
    fill="var(--icon-color, #1D2B2A)" />
</svg>
