<svg width="100%" height="100%" viewBox="0 0 24 24" fill="none" xmlns="http://www.w3.org/2000/svg">
  <g clip-path="url(#clip0_344_3474)">
    <path
      d="M12.5909 9.63636C11.8455 7.51818 9.82727 6 7.45455 6C4.44545 6 2 8.44545 2 11.4545C2 14.4636 4.44545 16.9091 7.45455 16.9091C9.82727 16.9091 11.8455 15.3909 12.5909 13.2727H16.5455V16.9091H20.1818V13.2727H22V9.63636H12.5909ZM7.45455 13.2727C6.45455 13.2727 5.63636 12.4545 5.63636 11.4545C5.63636 10.4545 6.45455 9.63636 7.45455 9.63636C8.45455 9.63636 9.27273 10.4545 9.27273 11.4545C9.27273 12.4545 8.45455 13.2727 7.45455 13.2727Z"
      fill="var(--icon-color, #1D2B2A)" />
  </g>
  <defs>
    <clipPath id="clip0_344_3474">
      <rect width="100%" height="100%" fill="white" />
    </clipPath>
  </defs>
</svg>
