<svg width="100%" height="100%" viewBox="0 0 19 19" fill="none" xmlns="http://www.w3.org/2000/svg">
<path d="M9.82742 17.5142C15.165 17.5142 18.1674 14.5118 18.1674 9.1742C18.1674 3.8366 15.165 0.834198 9.82742 0.834198C4.48982 0.834198 1.48742 3.8366 1.48742 9.1742C1.48742 10.8047 1.76681 12.2169 2.30752 13.3915L0.936983 17.1639C0.892408 17.2867 0.883337 17.4196 0.910809 17.5473C0.938281 17.675 1.00118 17.7923 1.09231 17.8859C1.18343 17.9795 1.29908 18.0455 1.426 18.0764C1.55292 18.1073 1.68598 18.1017 1.8099 18.0605L5.73665 16.7511C6.88618 17.2557 8.25533 17.5156 9.82742 17.5156V17.5142Z" stroke="var(--icon-color, #02FF47)" stroke-width="1.5" stroke-linecap="round" stroke-linejoin="round"/>
</svg>
