<svg viewBox="0 0 32 32" fill="none" xmlns="http://www.w3.org/2000/svg">
<g id="Close--Streamline-Ultimate" clip-path="url(#clip0_2142_7491)">
<path id="Vector" d="M19.0666 16.24C19.0347 16.2101 19.0093 16.1739 18.9919 16.1338C18.9745 16.0937 18.9656 16.0504 18.9656 16.0067C18.9656 15.9629 18.9745 15.9197 18.9919 15.8795C19.0093 15.8394 19.0347 15.8033 19.0666 15.7733L31.4132 3.41333C31.6003 3.22854 31.7488 3.00847 31.8502 2.76586C31.9515 2.52324 32.0037 2.26293 32.0037 1.99999C32.0037 1.73706 31.9515 1.47674 31.8502 1.23413C31.7488 0.99152 31.6003 0.771443 31.4132 0.58666C31.0365 0.215353 30.5288 0.00720215 29.9999 0.00720215C29.471 0.00720215 28.9633 0.215353 28.5866 0.58666L16.2399 12.9333C16.2088 12.9656 16.1715 12.9912 16.1303 13.0088C16.0891 13.0263 16.0447 13.0353 15.9999 13.0353C15.9551 13.0353 15.9108 13.0263 15.8695 13.0088C15.8283 12.9912 15.791 12.9656 15.7599 12.9333L3.41324 0.58666C3.03654 0.215353 2.52885 0.00720215 1.99991 0.00720215C1.47097 0.00720215 0.963279 0.215353 0.586575 0.58666C0.399522 0.771443 0.25101 0.99152 0.149648 1.23413C0.0482873 1.47674 -0.00390625 1.73706 -0.00390625 1.99999C-0.00390625 2.26293 0.0482873 2.52324 0.149648 2.76586C0.25101 3.00847 0.399522 3.22854 0.586575 3.41333L12.9332 15.7733C12.9651 15.8033 12.9905 15.8394 13.0079 15.8795C13.0253 15.9197 13.0343 15.9629 13.0343 16.0067C13.0343 16.0504 13.0253 16.0937 13.0079 16.1338C12.9905 16.1739 12.9651 16.2101 12.9332 16.24L0.586575 28.5867C0.399522 28.7714 0.25101 28.9915 0.149648 29.2341C0.0482873 29.4767 -0.00390625 29.7371 -0.00390625 30C-0.00390625 30.2629 0.0482873 30.5232 0.149648 30.7659C0.25101 31.0085 0.399522 31.2285 0.586575 31.4133C0.963279 31.7846 1.47097 31.9928 1.99991 31.9928C2.52885 31.9928 3.03654 31.7846 3.41324 31.4133L15.7599 19.0667C15.791 19.0344 15.8283 19.0087 15.8695 18.9912C15.9108 18.9737 15.9551 18.9647 15.9999 18.9647C16.0447 18.9647 16.0891 18.9737 16.1303 18.9912C16.1715 19.0087 16.2088 19.0344 16.2399 19.0667L28.5866 31.4133C28.9633 31.7846 29.471 31.9928 29.9999 31.9928C30.5288 31.9928 31.0365 31.7846 31.4132 31.4133C31.6003 31.2285 31.7488 31.0085 31.8502 30.7659C31.9515 30.5232 32.0037 30.2629 32.0037 30C32.0037 29.7371 31.9515 29.4767 31.8502 29.2341C31.7488 28.9915 31.6003 28.7714 31.4132 28.5867L19.0666 16.24Z" fill="var(--icon-color, #1D2B2A)" />
</g>
<defs>
<clipPath id="clip0_2142_7491">
<rect width="32" height="32" fill="white"/>
</clipPath>
</defs>
</svg>
