<svg width="100%" height="100%" viewBox="0 0 19 19" fill="none" xmlns="http://www.w3.org/2000/svg">
<path d="M12.2002 8.78361C12.2836 7.66605 11.1841 6.47899 9.99426 6.57768" stroke="var(--icon-color, #02FF47)" stroke-width="1.5" stroke-linecap="round" stroke-linejoin="round"/>
<path d="M9.47998 18.1675C15.04 18.1675 18.1675 15.04 18.1675 9.48C18.1675 3.92 15.04 0.792496 9.47998 0.792496C3.91998 0.792496 0.79248 3.92 0.79248 9.48C0.79248 15.04 3.91998 18.1675 9.47998 18.1675Z" stroke="var(--icon-color, #02FF47)" stroke-width="1.5" stroke-linecap="round" stroke-linejoin="round"/>
<path d="M9.47992 15.04C13.0383 15.04 15.0399 13.0384 15.0399 9.48C15.0399 5.9216 13.0383 3.92 9.47992 3.92C5.92152 3.92 3.91992 5.9216 3.91992 9.48C3.91992 13.0384 5.92152 15.04 9.47992 15.04Z" stroke="var(--icon-color, #02FF47)" stroke-width="1.5" stroke-linecap="round" stroke-linejoin="round"/>
</svg>
