<svg width="100%" height="100%" viewBox="0 0 13 16" fill="none" xmlns="http://www.w3.org/2000/svg">
  <path
    d="M11.6667 13.9998H4.33337V4.6665H11.6667M11.6667 3.33317H4.33337C3.97975 3.33317 3.64061 3.47365 3.39056 3.72369C3.14052 3.97374 3.00004 4.31288 3.00004 4.6665V13.9998C3.00004 14.3535 3.14052 14.6926 3.39056 14.9426C3.64061 15.1927 3.97975 15.3332 4.33337 15.3332H11.6667C12.0203 15.3332 12.3595 15.1927 12.6095 14.9426C12.8596 14.6926 13 14.3535 13 13.9998V4.6665C13 4.31288 12.8596 3.97374 12.6095 3.72369C12.3595 3.47365 12.0203 3.33317 11.6667 3.33317ZM9.66671 0.666504H1.66671C1.31309 0.666504 0.973947 0.80698 0.723898 1.05703C0.47385 1.30708 0.333374 1.64622 0.333374 1.99984V11.3332H1.66671V1.99984H9.66671V0.666504Z"
    fill="var(--icon-color, #1D2B2A)" />
</svg>
