<svg width="100%" height="100%" viewBox="0 0 15 19" fill="none" xmlns="http://www.w3.org/2000/svg">
  <path
    d="M7.00325 0C6.54325 0 6.07325 0.0400001 5.60325 0.14C2.84325 0.67 0.643245 2.9 0.123245 5.66C-0.356755 8.27 0.603245 10.67 2.34325 12.22C2.77325 12.6 3.00325 13.13 3.00325 13.69V16C3.00325 17.1 3.90325 18 5.00325 18H5.28325C5.63324 18.6 6.26325 19 7.00325 19C7.74325 19 8.38325 18.6 8.72325 18H9.00325C10.1032 18 11.0032 17.1 11.0032 16V13.69C11.0032 13.14 11.2232 12.6 11.6432 12.23C13.0932 10.95 14.0032 9.08 14.0032 7C14.0032 3.13 10.8732 0 7.00325 0ZM9.00325 16H5.00325V15H9.00325V16ZM9.00325 14H5.00325V13H9.00325V14ZM7.50325 8.41V11H6.50325V8.41L4.67325 6.59L5.38325 5.88L7.00325 7.5L8.62325 5.88L9.33325 6.59L7.50325 8.41Z"
    fill="var(--icon-color, #1D2B2A)" />
</svg>
