<svg width="100%" height="100%" viewBox="0 0 24 24" fill="none" xmlns="http://www.w3.org/2000/svg">
  <g clip-path="url(#clip0_344_3477)">
    <path
      d="M12.0032 2C11.5432 2 11.0732 2.04 10.6032 2.14C7.84325 2.67 5.64325 4.9 5.12325 7.66C4.64325 10.27 5.60325 12.67 7.34325 14.22C7.77325 14.6 8.00325 15.13 8.00325 15.69V18C8.00325 19.1 8.90325 20 10.0032 20H10.2832C10.6332 20.6 11.2632 21 12.0032 21C12.7432 21 13.3832 20.6 13.7232 20H14.0032C15.1032 20 16.0032 19.1 16.0032 18V15.69C16.0032 15.14 16.2232 14.6 16.6432 14.23C18.0932 12.95 19.0032 11.08 19.0032 9C19.0032 5.13 15.8732 2 12.0032 2ZM14.0032 18H10.0032V17H14.0032V18ZM14.0032 16H10.0032V15H14.0032V16ZM12.5032 10.41V13H11.5032V10.41L9.67325 8.59L10.3832 7.88L12.0032 9.5L13.6232 7.88L14.3332 8.59L12.5032 10.41Z"
      fill="var(--icon-color, #1D2B2A)" />
  </g>
  <defs>
    <clipPath id="clip0_344_3477">
      <rect width="100%" height="100%" fill="white" />
    </clipPath>
  </defs>
</svg>
