<svg width="100%" height="100%" viewBox="0 0 19 19" fill="none" xmlns="http://www.w3.org/2000/svg">
<path d="M6.72768 6.82222C6.91013 6.82805 7.0919 6.79714 7.26218 6.73135C7.43246 6.66555 7.58777 6.5662 7.7189 6.43919C7.85003 6.31219 7.95429 6.16013 8.02549 5.99204C8.0967 5.82395 8.13339 5.64326 8.13339 5.46071C8.13339 5.27816 8.0967 5.09748 8.02549 4.92939C7.95429 4.7613 7.85003 4.60923 7.7189 4.48223C7.58777 4.35522 7.43246 4.25587 7.26218 4.19007C7.0919 4.12428 6.91013 4.09338 6.72768 4.09921C6.3664 4.09921 6.01992 4.24272 5.76446 4.49818C5.509 4.75365 5.36548 5.10013 5.36548 5.46141C5.36548 5.82268 5.509 6.16916 5.76446 6.42463C6.01992 6.68009 6.3664 6.82361 6.72768 6.82361V6.82222Z" stroke="var(--icon-color, #02FF47)" stroke-width="1.5" stroke-linecap="round" stroke-linejoin="round"/>
<path d="M12.2877 12.4114C12.649 12.4114 12.9955 12.2679 13.251 12.0124C13.5064 11.757 13.6499 11.4105 13.6499 11.0492C13.6499 10.6879 13.5064 10.3415 13.251 10.086C12.9955 9.83053 12.649 9.68701 12.2877 9.68701C11.9265 9.68701 11.58 9.83053 11.3245 10.086C11.0691 10.3415 10.9255 10.6879 10.9255 11.0492C10.9255 11.4105 11.0691 11.757 11.3245 12.0124C11.58 12.2679 11.9265 12.4114 12.2877 12.4114Z" stroke="var(--icon-color, #02FF47)" stroke-width="1.5" stroke-linecap="round" stroke-linejoin="round"/>
<path d="M18.1675 4.35497V5.97154C17.6689 6.18656 17.2442 6.54289 16.9458 6.99654C16.6474 7.45018 16.4884 7.98128 16.4884 8.52427C16.4884 9.06726 16.6474 9.59836 16.9458 10.052C17.2442 10.5057 17.6689 10.862 18.1675 11.077V12.695C18.1675 14.2295 17.0652 15.2567 15.3875 15.475C10.7741 16.0727 8.19423 16.0768 3.57248 15.475C1.94201 15.2623 0.79248 14.2295 0.79248 12.695V11.077C1.29108 10.862 1.71579 10.5057 2.01419 10.052C2.31258 9.59836 2.4716 9.06726 2.4716 8.52427C2.4716 7.98128 2.31258 7.45018 2.01419 6.99654C1.71579 6.54289 1.29108 6.18656 0.79248 5.97154V4.35497C0.79248 2.81902 1.95313 1.8488 3.57248 1.57497C8.13863 0.799346 10.7546 0.916106 15.3875 1.57497C16.9193 1.79181 18.1675 2.81902 18.1675 4.35497Z" stroke="var(--icon-color, #02FF47)" stroke-width="1.5" stroke-linecap="round" stroke-linejoin="round"/>
<path d="M6.29126 11.4287C9.10601 9.11294 10.5127 7.72155 12.6686 5.05275" stroke="var(--icon-color, #02FF47)" stroke-width="1.5" stroke-linecap="round" stroke-linejoin="round"/>
</svg>
