<svg width="100%" height="100%" viewBox="0 0 16 18" fill="none" xmlns="http://www.w3.org/2000/svg">
  <path
    d="M1.71429 0C0.762857 0 0 0.762857 0 1.71429V15.4286C0 15.8832 0.180612 16.3193 0.502103 16.6408C0.823593 16.9622 1.25963 17.1429 1.71429 17.1429H5.14286V15.5057L6.93429 13.7143H1.71429V12H8.64857L10.3629 10.2857H1.71429V8.57143H12.0771L13.7143 6.93429V5.14286L8.57143 0H1.71429ZM7.71429 1.28571L12.4286 6H7.71429V1.28571ZM13.8429 9.42857C13.7143 9.42857 13.5943 9.47143 13.5 9.56571L12.6257 10.44L14.4171 12.2229L15.2914 11.3571C15.4714 11.1686 15.4714 10.86 15.2914 10.68L14.1771 9.56571C14.0829 9.47143 13.9629 9.42857 13.8429 9.42857ZM12.12 10.9457L6.85714 16.2171V18H8.64L13.9114 12.7286L12.12 10.9457Z"
    fill="var(--icon-color, #1D2B2A)" />
</svg>
