<svg width="100%" height="100%" viewBox="0 0 11 18" fill="none" xmlns="http://www.w3.org/2000/svg">
<path d="M2.70663 11.8013C4.23841 11.9486 5.83413 12.128 7.47433 12.128C9.16179 12.128 10.802 11.9389 12.3741 11.7874C13.0413 11.7235 13.5584 11.1897 13.3679 10.5475C12.8467 8.78639 11.2746 6.45258 11.2746 6.45258C11.2746 6.45258 12.8369 4.23275 13.3638 2.51332C13.5597 1.87253 13.0413 1.33877 12.3741 1.27483C10.8034 1.12193 9.16318 0.931503 7.47572 0.931503C5.83552 0.931503 4.23702 1.1122 2.70663 1.26093C1.98383 1.33043 1.42505 1.93508 1.42505 2.66205V10.3974C1.42505 11.1244 1.98383 11.729 2.70663 11.7985V11.8013Z" stroke="var(--icon-color, #02FF47)" stroke-width="1.5" stroke-linecap="round" stroke-linejoin="round"/>
<path d="M1.42505 18.0813V10.7838" stroke="var(--icon-color, #02FF47)" stroke-width="1.5" stroke-linecap="round" stroke-linejoin="round"/>
</svg>
