<svg width="20" height="20" viewBox="0 0 20 20" fill="none" xmlns="http://www.w3.org/2000/svg">
<g id="Filter vintage" clip-path="url(#clip0_1101_32900)">
<path id="Vector" d="M15.5827 10.3334C15.3493 10.2 15.1077 10.0917 14.866 10C15.1077 9.90838 15.3493 9.80005 15.5827 9.66671C17.1827 8.74171 18.0744 7.06671 18.0827 5.34171C16.591 4.48338 14.691 4.41671 13.0827 5.34171C12.8493 5.47505 12.6327 5.63338 12.4327 5.79171C12.4743 5.53338 12.4993 5.26671 12.4993 5.00005C12.4993 3.15005 11.491 1.54172 9.99935 0.675049C8.50768 1.54172 7.49935 3.15005 7.49935 5.00005C7.49935 5.26671 7.52435 5.53338 7.56602 5.79171C7.36602 5.62505 7.14935 5.46671 6.91602 5.33338C5.31602 4.40838 3.41602 4.47505 1.91602 5.33338C1.91602 7.05838 2.80768 8.73338 4.41602 9.65838C4.64935 9.79171 4.89102 9.90005 5.13268 9.99171C4.89102 10.0834 4.64935 10.1917 4.41602 10.325C2.81602 11.25 1.92435 12.925 1.91602 14.65C3.40768 15.5084 5.30768 15.575 6.91602 14.65C7.14935 14.5167 7.36602 14.3584 7.56602 14.2C7.52435 14.4667 7.49935 14.7334 7.49935 15C7.49935 16.85 8.50768 18.4584 9.99935 19.325C11.491 18.4584 12.4993 16.85 12.4993 15C12.4993 14.7334 12.4743 14.4667 12.4327 14.2084C12.6327 14.375 12.8493 14.525 13.0827 14.6584C14.6827 15.5834 16.5827 15.5167 18.0827 14.6584C18.0744 12.9334 17.1827 11.2584 15.5827 10.3334ZM9.99935 13.3334C8.15768 13.3334 6.66602 11.8417 6.66602 10C6.66602 8.15838 8.15768 6.66671 9.99935 6.66671C11.841 6.66671 13.3327 8.15838 13.3327 10C13.3327 11.8417 11.841 13.3334 9.99935 13.3334Z" fill="#AD844C"/>
</g>
<defs>
<clipPath id="clip0_1101_32900">
<rect width="20" height="20" fill="white"/>
</clipPath>
</defs>
</svg>
