<?xml version="1.0" encoding="UTF-8" standalone="no"?>
<svg
   xmlns="http://www.w3.org/2000/svg"
   width="100%"
   height="100%"
   viewBox="0 0 24 24">
  <path
     d="m 3.729125,3.6220488 c -1.72559,0.34962 -3.16496,1.70132 -3.62193,3.40139 l -0.10718,0.39868 v 4.5734602 4.573461 l 0.10718,0.39873 c 0.47108,1.75267 2.0061,3.14773 3.76512,3.42193 0.25776,0.0402 2.43888,0.0507 8.32358,0.0401 l 7.9742,-0.0145 0.37526,-0.10729 c 1.72492,-0.49318 3.04841,-1.92601 3.38158,-3.66102 0.0974,-0.50753 0.0974,-8.7952612 0,-9.3027912 -0.33317,-1.73501 -1.6566,-3.16777 -3.38158,-3.66101 l -0.37526,-0.1073 -8.06804,-0.008 c -6.51123,-0.006 -8.12688,0.004 -8.37293,0.054 m 16.39408,1.95794 c 0.9301,0.31708 1.62339,1.05553 1.88685,2.0097 0.12777,0.46274 0.12777,8.3490412 0,8.8117712 -0.26346,0.95418 -0.95675,1.69263 -1.88685,2.0097 l -0.37526,0.12795 h -7.76315 -7.76316 l -0.40077,-0.1435 C 2.906495,18.06799 2.270355,17.4103 1.986005,16.49851 l -0.1097,-0.35178 V 11.995419 7.8441088 l 0.1097,-0.35179 c 0.33947,-1.0886 1.26891,-1.88493 2.3529,-2.01606 0.16769,-0.0203 3.70334,-0.0341 7.85699,-0.0306 l 7.55205,0.006 0.37526,0.12795" />
</svg>
