<svg width="100%" height="100%" viewBox="0 0 20 20" fill="none" xmlns="http://www.w3.org/2000/svg">
  <path d="M11.2502 12.9168H8.3335V10.4168H11.2502C11.5817 10.4168 11.8996 10.5485 12.134 10.7829C12.3685 11.0174 12.5002 11.3353 12.5002 11.6668C12.5002 11.9983 12.3685 12.3163 12.134 12.5507C11.8996 12.7851 11.5817 12.9168 11.2502 12.9168ZM8.3335 5.41683H10.8335C11.165 5.41683 11.483 5.54852 11.7174 5.78295C11.9518 6.01737 12.0835 6.33531 12.0835 6.66683C12.0835 6.99835 11.9518 7.31629 11.7174 7.55071C11.483 7.78513 11.165 7.91683 10.8335 7.91683H8.3335M13.0002 8.99183C13.8085 8.42516 14.3752 7.50016 14.3752 6.66683C14.3752 4.7835 12.9168 3.3335 11.0418 3.3335H5.8335V15.0002H11.7002C13.4502 15.0002 14.7918 13.5835 14.7918 11.8418C14.7918 10.5752 14.0752 9.49183 13.0002 8.99183Z" fill="black"/>
</svg>
