<svg width="100%" height="100%" viewBox="0 0 20 20" fill="none" xmlns="http://www.w3.org/2000/svg">
  <path d="M12.5 9.16667C12.5 10.0917 11.75 10.8333 10.8333 10.8333H9.16667V12.5H12.5V14.1667H7.5V10.8333C7.5 9.90833 8.25 9.16667 9.16667 9.16667H10.8333V7.5H7.5V5.83333H10.8333C11.2754 5.83333 11.6993 6.00893 12.0118 6.32149C12.3244 6.63405 12.5 7.05797 12.5 7.5M15.8333 2.5H4.16667C3.72464 2.5 3.30072 2.67559 2.98816 2.98816C2.67559 3.30072 2.5 3.72464 2.5 4.16667V15.8333C2.5 16.2754 2.67559 16.6993 2.98816 17.0118C3.30072 17.3244 3.72464 17.5 4.16667 17.5H15.8333C16.2754 17.5 16.6993 17.3244 17.0118 17.0118C17.3244 16.6993 17.5 16.2754 17.5 15.8333V4.16667C17.5 3.72464 17.3244 3.30072 17.0118 2.98816C16.6993 2.67559 16.2754 2.5 15.8333 2.5Z" fill="black"/>
</svg>
