<svg width="100%" height="100%" viewBox="0 0 20 20" fill="none" xmlns="http://www.w3.org/2000/svg">
  <path d="M5.83317 10.8335V9.16683H17.4998V10.8335H5.83317ZM5.83317 15.8335V14.1668H17.4998V15.8335H5.83317ZM5.83317 5.8335V4.16683H17.4998V5.8335H5.83317ZM2.49984 6.66683V4.16683H1.6665V3.3335H3.33317V6.66683H2.49984ZM1.6665 14.1668V13.3335H4.1665V16.6668H1.6665V15.8335H3.33317V15.4168H2.49984V14.5835H3.33317V14.1668H1.6665ZM3.5415 8.3335C3.70726 8.3335 3.86624 8.39934 3.98345 8.51656C4.10066 8.63377 4.1665 8.79274 4.1665 8.9585C4.1665 9.12516 4.09984 9.2835 3.9915 9.39183L2.59984 10.8335H4.1665V11.6668H1.6665V10.9002L3.33317 9.16683H1.6665V8.3335H3.5415Z" fill="black"/>
</svg>
