<?xml version="1.0" encoding="UTF-8" standalone="no"?>
<!-- Created with Inkscape (http://www.inkscape.org/) -->

<svg
   xmlns:dc="http://purl.org/dc/elements/1.1/"
   xmlns:cc="http://creativecommons.org/ns#"
   xmlns:rdf="http://www.w3.org/1999/02/22-rdf-syntax-ns#"
   xmlns:svg="http://www.w3.org/2000/svg"
   xmlns="http://www.w3.org/2000/svg"
   xmlns:sodipodi="http://sodipodi.sourceforge.net/DTD/sodipodi-0.dtd"
   xmlns:inkscape="http://www.inkscape.org/namespaces/inkscape"
   width="165.31705mm"
   height="165.44482mm"
   viewBox="0 0 165.31705 165.44482"
   version="1.1"
   id="svg949"
   inkscape:version="0.92.5 (2060ec1f9f, 2020-04-08)"
   sodipodi:docname="format-caption.svg">
  <defs
     id="defs943" />
  <sodipodi:namedview
     id="base"
     pagecolor="#ffffff"
     bordercolor="#666666"
     borderopacity="1.0"
     inkscape:pageopacity="0.0"
     inkscape:pageshadow="2"
     inkscape:zoom="0.35"
     inkscape:cx="-764.61928"
     inkscape:cy="-707.76315"
     inkscape:document-units="mm"
     inkscape:current-layer="layer1"
     showgrid="false"
     inkscape:window-width="2560"
     inkscape:window-height="1373"
     inkscape:window-x="0"
     inkscape:window-y="27"
     inkscape:window-maximized="1"
     fit-margin-top="15"
     fit-margin-left="15"
     fit-margin-right="15"
     fit-margin-bottom="15" />
  <metadata
     id="metadata946">
    <rdf:RDF>
      <cc:Work
         rdf:about="">
        <dc:format>image/svg+xml</dc:format>
        <dc:type
           rdf:resource="http://purl.org/dc/dcmitype/StillImage" />
        <dc:title></dc:title>
      </cc:Work>
    </rdf:RDF>
  </metadata>
  <g
     inkscape:label="Layer 1"
     inkscape:groupmode="layer"
     id="layer1"
     transform="translate(-18.28077,-12.077086)">
    <path
       id="path4911"
       style="fill:#000000;stroke-width:0.35277778"
       d="m 144.39247,150.68892 c 6.08442,-1.58479 10.77136,-6.28674 12.36481,-12.40441 0.79079,-3.03602 0.79079,-83.963707 0,-86.999717 -1.59345,-6.11767 -6.28039,-10.81962 -12.36481,-12.40441 -3.0847,-0.80346 -83.972368,-0.81642 -87.053268,-0.0139 -6.117671,1.59345 -10.819616,6.28039 -12.40441,12.36482 -0.80346,3.08469 -0.816416,83.972347 -0.01394,87.053247 1.573147,6.03972 6.250253,10.78331 12.2134,12.387 2.939708,0.79059 84.227518,0.80681 87.258218,0.0174 z m -88.179793,11.30787 c -7.484357,-1.38664 -14.321659,-5.97562 -18.562382,-12.45847 -1.723638,-2.63495 -2.742547,-4.98453 -3.779813,-8.71617 -0.53481,-1.92402 -0.58836,-6.11416 -0.58836,-46.037497 0,-47.83754 -0.121165,-44.68965 1.930982,-50.16756 2.522268,-6.73283 9.382634,-13.292986 16.555896,-15.8314 5.053528,-1.788301 4.938437,-1.784522 50.65757,-1.663255 46.43918,0.123178 43.08849,-0.01745 48.58526,2.039154 2.7178,1.016858 6.71373,3.688951 9.21562,6.162509 4.07834,4.032172 7.0698,9.903162 7.9524,15.607292 0.62215,4.02086 0.52049,84.814837 -0.11111,88.303257 -2.13461,11.78985 -11.61214,21.07049 -23.37641,22.89078 -3.89675,0.60294 -85.168714,0.48478 -88.479653,-0.12864 z"
       inkscape:export-xdpi="12.001935"
       inkscape:export-ydpi="12.001935"
       inkscape:connector-curvature="0" />
    <path
       style="fill:#000000;stroke-width:0.35277778"
       d="m 58.92188,139.34691 c -0.644246,-0.31746 -1.596746,-1.13493 -2.116667,-1.81658 -0.772135,-1.01232 -0.945314,-1.61128 -0.945314,-3.26944 0,-2.19321 0.586966,-3.3305 2.428731,-4.70583 0.958536,-0.71579 1.358247,-0.72887 25.133405,-0.82271 26.933595,-0.10631 25.644015,-0.21491 27.579305,2.3224 1.3572,1.77938 1.3572,4.70264 0,6.48202 -1.91542,2.51125 -0.70375,2.40434 -27.148923,2.3954 -21.275512,-0.007 -23.881634,-0.0684 -24.930537,-0.58526 z"
       id="path4909"
       inkscape:export-xdpi="12.001935"
       inkscape:export-ydpi="12.001935"
       inkscape:connector-curvature="0" />
    <path
       style="fill:#000000;stroke-width:0.35277778"
       d="m 126.65522,139.34691 c -0.64425,-0.31746 -1.59675,-1.13493 -2.11667,-1.81658 -1.23765,-1.62265 -1.34671,-4.76187 -0.21796,-6.27371 1.76347,-2.36199 1.98354,-2.41854 9.87325,-2.53722 8.11673,-0.1221 8.9366,0.0573 10.67417,2.33535 0.77292,1.01335 0.95022,1.61809 0.95022,3.24101 0,1.62291 -0.1773,2.22765 -0.95022,3.24101 -1.6801,2.20273 -2.54031,2.40443 -10.21559,2.3954 -5.59589,-0.007 -7.03692,-0.11204 -7.9972,-0.58526 z"
       id="path4907"
       inkscape:export-xdpi="12.001935"
       inkscape:export-ydpi="12.001935"
       inkscape:connector-curvature="0" />
    <path
       style="fill:#000000;stroke-width:0.35277778"
       d="m 58.92188,116.76914 c -0.644246,-0.31747 -1.596746,-1.13494 -2.116667,-1.81659 -1.23765,-1.62264 -1.346711,-4.76187 -0.21796,-6.27371 1.763476,-2.36198 1.983542,-2.41854 9.873248,-2.53722 8.116732,-0.1221 8.936602,0.0573 10.674173,2.33535 0.772922,1.01336 0.950225,1.61809 0.950225,3.24101 0,1.62292 -0.177303,2.22765 -0.950225,3.24101 -1.680104,2.20273 -2.540313,2.40443 -10.21559,2.3954 -5.595892,-0.007 -7.036918,-0.11204 -7.997204,-0.58525 z"
       id="path4905"
       inkscape:export-xdpi="12.001935"
       inkscape:export-ydpi="12.001935"
       inkscape:connector-curvature="0" />
    <path
       style="fill:#000000;stroke-width:0.35277778"
       d="m 92.788546,116.76914 c -0.64425,-0.31747 -1.59675,-1.13494 -2.11667,-1.81659 -0.77213,-1.01232 -0.94531,-1.61127 -0.94531,-3.26943 0,-2.19321 0.58697,-3.33051 2.42873,-4.70584 0.95854,-0.71579 1.35825,-0.72887 25.133404,-0.82271 26.9336,-0.10631 25.64401,-0.2149 27.57931,2.3224 1.3572,1.77938 1.3572,4.70264 0,6.48202 -1.91542,2.51125 -0.70375,2.40434 -27.14892,2.3954 -21.275514,-0.007 -23.881644,-0.0684 -24.930544,-0.58525 z"
       id="path1083"
       inkscape:export-xdpi="12.001935"
       inkscape:export-ydpi="12.001935"
       inkscape:connector-curvature="0" />
  </g>
</svg>
