<svg width="100%" height="100%" viewBox="0 0 20 20" fill="none" xmlns="http://www.w3.org/2000/svg">
  <path d="M5.8335 4.16667H17.5002V5.83333H5.8335V4.16667ZM5.8335 10.8333V9.16667H17.5002V10.8333H5.8335ZM3.3335 3.75C3.66502 3.75 3.98296 3.8817 4.21738 4.11612C4.4518 4.35054 4.5835 4.66848 4.5835 5C4.5835 5.33152 4.4518 5.64946 4.21738 5.88388C3.98296 6.1183 3.66502 6.25 3.3335 6.25C3.00198 6.25 2.68403 6.1183 2.44961 5.88388C2.21519 5.64946 2.0835 5.33152 2.0835 5C2.0835 4.66848 2.21519 4.35054 2.44961 4.11612C2.68403 3.8817 3.00198 3.75 3.3335 3.75ZM3.3335 8.75C3.66502 8.75 3.98296 8.8817 4.21738 9.11612C4.4518 9.35054 4.5835 9.66848 4.5835 10C4.5835 10.3315 4.4518 10.6495 4.21738 10.8839C3.98296 11.1183 3.66502 11.25 3.3335 11.25C3.00198 11.25 2.68403 11.1183 2.44961 10.8839C2.21519 10.6495 2.0835 10.3315 2.0835 10C2.0835 9.66848 2.21519 9.35054 2.44961 9.11612C2.68403 8.8817 3.00198 8.75 3.3335 8.75ZM5.8335 15.8333V14.1667H17.5002V15.8333H5.8335ZM3.3335 13.75C3.66502 13.75 3.98296 13.8817 4.21738 14.1161C4.4518 14.3505 4.5835 14.6685 4.5835 15C4.5835 15.3315 4.4518 15.6495 4.21738 15.8839C3.98296 16.1183 3.66502 16.25 3.3335 16.25C3.00198 16.25 2.68403 16.1183 2.44961 15.8839C2.21519 15.6495 2.0835 15.3315 2.0835 15C2.0835 14.6685 2.21519 14.3505 2.44961 14.1161C2.68403 13.8817 3.00198 13.75 3.3335 13.75Z" fill="black"/>
</svg>
