<svg width="100%" height="100%" viewBox="0 0 24 24" fill="none" xmlns="http://www.w3.org/2000/svg">
  <path
    d="M23.0001 17C23.0001 20.31 20.3101 23 17.0001 23V21.5C19.5001 21.5 21.5001 19.5 21.5001 17H23.0001ZM1.00012 7C1.00012 3.69 3.69012 1 7.00012 1V2.5C4.50012 2.5 2.50012 4.5 2.50012 7H1.00012ZM8.00012 4.32L3.41012 8.92C0.190117 12.14 0.190117 17.37 3.41012 20.59C6.63012 23.81 11.8601 23.81 15.0801 20.59L22.1501 13.5C22.6401 13.03 22.6401 12.24 22.1501 11.75C21.6601 11.26 20.8701 11.26 20.3801 11.75L15.9601 16.17L15.2501 15.46L21.7901 8.92C22.2801 8.43 22.2801 7.64 21.7901 7.15C21.3001 6.66 20.5001 6.66 20.0001 7.15L14.1901 13L13.5001 12.27L20.3701 5.38C20.8601 4.89 20.8601 4.1 20.3701 3.61C19.8801 3.12 19.0901 3.12 18.6001 3.61L11.7101 10.5L11.0001 9.8L16.5001 4.32C17.0001 3.83 17.0001 3.04 16.5001 2.55C16.0001 2.06 15.2201 2.06 14.7301 2.55L7.11012 10.17C8.33012 11.74 8.22012 14 6.78012 15.45L6.07012 14.74C7.24012 13.57 7.24012 11.67 6.07012 10.5L5.72012 10.15L9.79012 6.08C10.2801 5.59 10.2801 4.8 9.79012 4.31C9.29012 3.83 8.50012 3.83 8.00012 4.32Z"
    fill="var(--icon-color, #1D2B2A)" />
</svg>
