<svg width="20" height="20" viewBox="0 0 20 20" fill="none" xmlns="http://www.w3.org/2000/svg">
<g id="Pan tool" clip-path="url(#clip0_1101_32889)">
<g id="Group">
<g id="Group_2">
<g id="Group_3">
<path id="Vector" d="M19.1673 4.58333V16.6667C19.1673 18.5 17.6673 20 15.834 20H9.75065C8.85065 20 8.00065 19.6417 7.37565 19.0083L0.833984 12.3583C0.833984 12.3583 1.88398 11.3333 1.91732 11.3167C2.10065 11.1583 2.32565 11.075 2.57565 11.075C2.75898 11.075 2.92565 11.125 3.07565 11.2083C3.10898 11.2167 6.66732 13.2583 6.66732 13.2583V3.33333C6.66732 2.64167 7.22565 2.08333 7.91732 2.08333C8.60899 2.08333 9.16732 2.64167 9.16732 3.33333V9.16667H10.0007V1.25C10.0007 0.558333 10.559 0 11.2507 0C11.9423 0 12.5007 0.558333 12.5007 1.25V9.16667H13.334V2.08333C13.334 1.39167 13.8923 0.833333 14.584 0.833333C15.2757 0.833333 15.834 1.39167 15.834 2.08333V9.16667H16.6673V4.58333C16.6673 3.89167 17.2257 3.33333 17.9173 3.33333C18.609 3.33333 19.1673 3.89167 19.1673 4.58333Z" fill="#AD844C"/>
</g>
</g>
</g>
</g>
<defs>
<clipPath id="clip0_1101_32889">
<rect width="20" height="20" fill="white"/>
</clipPath>
</defs>
</svg>
