<svg width="100%" height="100%" viewBox="0 0 24 24" fill="none" xmlns="http://www.w3.org/2000/svg">
  <path
    d="M12.09 17.995L12 18.085L11.901 17.995C7.626 14.116 4.8 11.551 4.8 8.95C4.8 7.15 6.15 5.8 7.95 5.8C9.336 5.8 10.686 6.7 11.163 7.924H12.837C13.314 6.7 14.664 5.8 16.05 5.8C17.85 5.8 19.2 7.15 19.2 8.95C19.2 11.551 16.374 14.116 12.09 17.995ZM16.05 4C14.484 4 12.981 4.729 12 5.872C11.019 4.729 9.516 4 7.95 4C5.178 4 3 6.169 3 8.95C3 12.343 6.06 15.124 10.695 19.327L12 20.515L13.305 19.327C17.94 15.124 21 12.343 21 8.95C21 6.169 18.822 4 16.05 4Z"
    fill="var(--icon-color, #1D2B2A)" />
</svg>
