<svg width="100%" height="100%" viewBox="0 0 16 16" fill="none" xmlns="http://www.w3.org/2000/svg">
<g>
<path d="M10.5617 7.7017C12.1353 7.7017 13.4125 6.42452 13.4125 4.85085C13.4125 3.27718 12.1353 2 10.5617 2C8.988 2 7.71082 3.27718 7.71082 4.85085C7.71082 6.42452 8.988 7.7017 10.5617 7.7017ZM13.6691 10.8947C13.4467 10.6666 13.1673 10.5525 12.8424 10.5525H8.85116L7.66521 10.1363L7.85336 9.60036L8.85116 9.98238H10.4476C10.6472 9.98238 10.8068 9.90255 10.938 9.77142C11.0691 9.64028 11.1318 9.48063 11.1318 9.30388C11.1318 8.99598 10.9836 8.78502 10.6871 8.66529L6.54197 7.13153H5.43014V12.2631L9.42133 13.4034L13.9998 11.6929C14.0055 11.3907 13.8915 11.1227 13.6691 10.8947ZM4.2898 7.13153H2V13.4034H4.2898V7.13153Z" fill="var(--icon-color, #1D2B2A)"/>
</g>
</svg>
