<svg width="100%" height="100%" viewBox="0 0 17 5" fill="none" xmlns="http://www.w3.org/2000/svg">
  <path
    d="M12.4834 2.35059C12.4834 1.82015 12.6941 1.31145 13.0692 0.936373C13.4443 0.5613 13.953 0.350586 14.4834 0.350586C15.0138 0.350586 15.5225 0.5613 15.8976 0.936373C16.2727 1.31145 16.4834 1.82015 16.4834 2.35059C16.4834 2.88102 16.2727 3.38973 15.8976 3.7648C15.5225 4.13987 15.0138 4.35059 14.4834 4.35059C13.953 4.35059 13.4443 4.13987 13.0692 3.7648C12.6941 3.38973 12.4834 2.88102 12.4834 2.35059ZM6.4834 2.35059C6.4834 1.82015 6.69411 1.31145 7.06919 0.936373C7.44426 0.5613 7.95297 0.350586 8.4834 0.350586C9.01383 0.350586 9.52254 0.5613 9.89761 0.936373C10.2727 1.31145 10.4834 1.82015 10.4834 2.35059C10.4834 2.88102 10.2727 3.38973 9.89761 3.7648C9.52254 4.13987 9.01383 4.35059 8.4834 4.35059C7.95297 4.35059 7.44426 4.13987 7.06919 3.7648C6.69411 3.38973 6.4834 2.88102 6.4834 2.35059ZM0.483398 2.35059C0.483398 1.82015 0.694112 1.31145 1.06918 0.936373C1.44426 0.5613 1.95297 0.350586 2.4834 0.350586C3.01383 0.350586 3.52254 0.5613 3.89761 0.936373C4.27268 1.31145 4.4834 1.82015 4.4834 2.35059C4.4834 2.88102 4.27268 3.38973 3.89761 3.7648C3.52254 4.13987 3.01383 4.35059 2.4834 4.35059C1.95297 4.35059 1.44426 4.13987 1.06918 3.7648C0.694112 3.38973 0.483398 2.88102 0.483398 2.35059Z"
    fill="var(--icon-color, #1D2B2A)" />
</svg>
