<svg width="100%" height="100%" viewBox="0 0 16 19" fill="none" xmlns="http://www.w3.org/2000/svg">
  <path
    d="M8 19C12.4178 19 16 15.3538 16 10.8571C11.5822 10.8571 8 14.5033 8 19ZM2.31111 8.36905C2.31111 9.61762 3.30667 10.631 4.53333 10.631C5.00444 10.631 5.43111 10.4862 5.79556 10.2329L5.77778 10.4048C5.77778 11.6533 6.77333 12.6667 8 12.6667C9.22667 12.6667 10.2222 11.6533 10.2222 10.4048L10.2044 10.2329C10.56 10.4862 10.9956 10.631 11.4667 10.631C12.6933 10.631 13.6889 9.61762 13.6889 8.36905C13.6889 7.46429 13.1644 6.69524 12.4178 6.33333C13.1644 5.97143 13.6889 5.20238 13.6889 4.29762C13.6889 3.04905 12.6933 2.03571 11.4667 2.03571C10.9956 2.03571 10.5689 2.18048 10.2044 2.43381L10.2222 2.2619C10.2222 1.01333 9.22667 0 8 0C6.77333 0 5.77778 1.01333 5.77778 2.2619L5.79556 2.43381C5.44 2.18048 5.00444 2.03571 4.53333 2.03571C3.30667 2.03571 2.31111 3.04905 2.31111 4.29762C2.31111 5.20238 2.83556 5.97143 3.58222 6.33333C2.83556 6.69524 2.31111 7.46429 2.31111 8.36905ZM8 4.07143C9.22667 4.07143 10.2222 5.08476 10.2222 6.33333C10.2222 7.5819 9.22667 8.59524 8 8.59524C6.77333 8.59524 5.77778 7.5819 5.77778 6.33333C5.77778 5.08476 6.77333 4.07143 8 4.07143ZM0 10.8571C0 15.3538 3.58222 19 8 19C8 14.5033 4.41778 10.8571 0 10.8571Z"
    fill="var(--icon-color, #1D2B2A)" />
</svg>
