<svg width="100%" height="100%" viewBox="0 0 24 24" fill="none" xmlns="http://www.w3.org/2000/svg">
  <g clip-path="url(#clip0_344_3476)">
    <path
      d="M12 21C16.4178 21 20 17.3538 20 12.8571C15.5822 12.8571 12 16.5033 12 21ZM6.31111 10.369C6.31111 11.6176 7.30667 12.631 8.53333 12.631C9.00444 12.631 9.43111 12.4862 9.79556 12.2329L9.77778 12.4048C9.77778 13.6533 10.7733 14.6667 12 14.6667C13.2267 14.6667 14.2222 13.6533 14.2222 12.4048L14.2044 12.2329C14.56 12.4862 14.9956 12.631 15.4667 12.631C16.6933 12.631 17.6889 11.6176 17.6889 10.369C17.6889 9.46429 17.1644 8.69524 16.4178 8.33333C17.1644 7.97143 17.6889 7.20238 17.6889 6.29762C17.6889 5.04905 16.6933 4.03571 15.4667 4.03571C14.9956 4.03571 14.5689 4.18048 14.2044 4.43381L14.2222 4.2619C14.2222 3.01333 13.2267 2 12 2C10.7733 2 9.77778 3.01333 9.77778 4.2619L9.79556 4.43381C9.44 4.18048 9.00444 4.03571 8.53333 4.03571C7.30667 4.03571 6.31111 5.04905 6.31111 6.29762C6.31111 7.20238 6.83556 7.97143 7.58222 8.33333C6.83556 8.69524 6.31111 9.46429 6.31111 10.369ZM12 6.07143C13.2267 6.07143 14.2222 7.08476 14.2222 8.33333C14.2222 9.5819 13.2267 10.5952 12 10.5952C10.7733 10.5952 9.77778 9.5819 9.77778 8.33333C9.77778 7.08476 10.7733 6.07143 12 6.07143ZM4 12.8571C4 17.3538 7.58222 21 12 21C12 16.5033 8.41778 12.8571 4 12.8571Z"
      fill="var(--icon-color, #1D2B2A)" />
  </g>
  <defs>
    <clipPath id="clip0_344_3476">
      <rect width="100%" height="100%" fill="white" />
    </clipPath>
  </defs>
</svg>
