<?xml version="1.0" encoding="UTF-8" standalone="no"?>
<svg xmlns="http://www.w3.org/2000/svg" viewBox="0 0 64 64" fill="var(--icon-color, #1D2B2A)">
  <path d="m 25.526308,19.500006 c -0.6,-1.5 -0.3,-3.200001 0.8,-4.400001 l 0.2,-0.2 1.1,-0.7 -11.1,-6.9000004 L 0.32630801,17.700006 c -0.7,0.7 -0.2,2 0.79999999,2 h 2 v 18.7 h 8.5 l 16.8,-10.8 v -5.7 c -1.3,-0.2 -2.4,-1.1 -2.9,-2.4 z m -5.3,7.8 h -7.3 v -7.3 h 7.3 z" />
  <path d="m 62.926308,17.400006 -17.6,-11.0000014 -17.1,11.0000014 c -0.8,0.8 -0.2,2.1 0.9,2.1 h 2 v 8 l 18.9,11.8 h 10 v -19.8 h 2 c 1.1,0 1.7,-1.3 0.9,-2.1 z m -13.6,9.9 h -7.2 v -7.3 h 7.3 v 7.3 z" />
  <path d="m 49.926308,42.300006 -20,-12.5 -19.5,12.5 c -0.9,0.9 -0.2,2.4 1,2.4 h 2.3 v 19.3 h 32.9 v -19.3 h 2.3 c 1.2,0 1.9,-1.6 1,-2.4 z m -14.2,14.7 h -11.7 v -11.7 h 11.7 z" />
</svg>
