<svg width="100%" height="100%" viewBox="0 0 24 30" fill="none" xmlns="http://www.w3.org/2000/svg">
  <path
    d="M12 0L0 5.33333V13.3333C0 20.7333 5.12 27.6533 12 29.3333C18.88 27.6533 24 20.7333 24 13.3333V5.33333L12 0ZM12 5.33333C13.0609 5.33333 14.0783 5.75476 14.8284 6.50491C15.5786 7.25505 16 8.27247 16 9.33333C16 10.3942 15.5786 11.4116 14.8284 12.1618C14.0783 12.9119 13.0609 13.3333 12 13.3333C10.9391 13.3333 9.92172 12.9119 9.17157 12.1618C8.42143 11.4116 8 10.3942 8 9.33333C8 8.27247 8.42143 7.25505 9.17157 6.50491C9.92172 5.75476 10.9391 5.33333 12 5.33333ZM18.84 21.3333C17.2267 23.8 14.8133 25.6533 12 26.56C9.18667 25.6533 6.77333 23.8 5.16 21.3333C4.70667 20.6667 4.32 20 4 19.2933C4 17.0933 7.61333 15.2933 12 15.2933C16.3867 15.2933 20 17.0533 20 19.2933C19.68 20 19.2933 20.6667 18.84 21.3333Z"
    fill="var(--icon-color, #00FF47)" />
</svg>
