<svg width="100%" height="100%" viewBox="0 0 18 20" fill="none" xmlns="http://www.w3.org/2000/svg">
<path d="M7.74 11.25L9 8.5L10.25 11.25L13 12.5L10.25 13.76L9 16.5L7.74 13.76L5 12.5L7.74 11.25ZM13 2V0H15V2H16C16.53 2 17.04 2.21 17.41 2.59C17.79 2.96 18 3.47 18 4V18C18 18.53 17.79 19.04 17.41 19.41C17.04 19.79 16.53 20 16 20H2C1.47 20 0.96 19.79 0.59 19.41C0.21 19.04 0 18.53 0 18V4C0 3.47 0.21 2.96 0.59 2.59C0.96 2.21 1.47 2 2 2H3V0H5V2H13ZM2 7V18H16V7H2Z" fill="var(--icon-color, #1D2B2A)"/>
</svg>
