<svg width="100%" height="100%" viewBox="0 0 18 18" fill="none" xmlns="http://www.w3.org/2000/svg">
<path d="M8.25 7.5H9.75V12H8.25V7.5ZM16.5 9H14.25V15H3.75V9H1.5L9 2.25L16.5 9ZM11.25 7.5C11.25 7.10218 11.092 6.72064 10.8107 6.43934C10.5294 6.15804 10.1478 6 9.75 6H8.25C7.85218 6 7.47064 6.15804 7.18934 6.43934C6.90804 6.72064 6.75 7.10218 6.75 7.5V12C6.75 12.3978 6.90804 12.7794 7.18934 13.0607C7.47064 13.342 7.85218 13.5 8.25 13.5H9.75C10.1478 13.5 10.5294 13.342 10.8107 13.0607C11.092 12.7794 11.25 12.3978 11.25 12V7.5Z" fill="var(--icon-color, #FED7A2)"/>
</svg>
