<svg width="100%" height="100%" viewBox="0 0 16 20" fill="none" xmlns="http://www.w3.org/2000/svg">
<path d="M1.73773 15.5228C1.81557 16.8628 2.87753 17.9275 4.21888 17.9734C7.33248 18.0818 11.1161 17.9678 13.076 17.89C13.4311 17.8756 13.7668 17.7243 14.0128 17.4677C14.2587 17.2111 14.3957 16.8693 14.3951 16.5139V6.03329C14.3961 5.67765 14.2592 5.33545 14.0132 5.07859C13.7673 4.82172 13.4313 4.67018 13.076 4.6558C10.8659 4.56823 6.33446 4.43479 3.05962 4.62522C2.73632 4.64521 2.43142 4.78247 2.20213 5.01125C1.97283 5.24004 1.83489 5.54463 1.81418 5.86788C1.57788 9.14828 1.55286 12.2758 1.73912 15.5228H1.73773Z" stroke="var(--icon-color, #02FF47)" stroke-width="1.5" stroke-linecap="round" stroke-linejoin="round"/>
<path d="M2.20898 5.00469C4.35653 1.74653 8.91573 0.324561 12.7869 1.05292V4.64468C10.4892 4.5585 6.19828 4.44313 3.05966 4.62522C2.7393 4.64367 2.43674 4.77864 2.20898 5.00469Z" stroke="var(--icon-color, #02FF47)" stroke-width="1.5" stroke-linecap="round" stroke-linejoin="round"/>
<path d="M9.87484 14.725H6.13574" stroke="var(--icon-color, #02FF47)" stroke-width="1.5" stroke-linecap="round" stroke-linejoin="round"/>
<path d="M8.00529 12.0006C9.33969 12.0006 10.0903 11.25 10.0903 9.91557C10.0903 8.58117 9.33969 7.83057 8.00529 7.83057C6.67089 7.83057 5.92029 8.58117 5.92029 9.91557C5.92029 11.25 6.67089 12.0006 8.00529 12.0006Z" stroke="var(--icon-color, #02FF47)" stroke-width="1.5" stroke-linecap="round" stroke-linejoin="round"/>
</svg>
