<svg width="100%" height="100%" viewBox="0 0 24 24" fill="var(--icon-color, #1D2B2A)" xmlns="http://www.w3.org/2000/svg">
    <path d="M7 18.9997H15V21.9997H7V18.9997ZM16.94 0.999742C16.4 0.909742 15.87 1.24974 15.76 1.79974L14.75 7.56974C14.53 7.53974 14.29 7.49974 14 7.46974L13.57 7.49974L12.41 1.79974C12.31 1.25974 11.78 0.909742 11.24 0.999742C10.7 1.12974 10.35 1.65974 10.45 2.19974L11.65 8.10974L7.85 9.79974C7.35 9.99974 7 10.5297 7 11.1397V15.4997C7 16.2997 7.73 16.9997 8.5 16.9997H15C15.39 16.9997 15.74 16.8397 16 16.5697L16.5 16.1597C16.5 16.1597 17 15.7797 17 15.3597V12.9997C17 12.9997 17 11.8597 16.13 11.2997L17.71 2.19974C17.83 1.65974 17.5 1.12974 16.94 0.999742Z" />
</svg>
