<svg width="100%" height="100%" viewBox="0 0 40 40" fill="none" xmlns="http://www.w3.org/2000/svg">
  <path
    d="M4 8H0V36C0 38.22 1.8 40 4 40H32V36H4V8ZM33 24.5C33 21.5 27 20 24 20C21 20 15 21.5 15 24.5V26H33M24 16.5C26.48 16.5 28.5 14.48 28.5 12C28.5 9.52 26.48 7.5 24 7.5C21.52 7.5 19.5 9.52 19.5 12C19.5 14.48 21.52 16.5 24 16.5ZM36 0H12C9.8 0 8 1.8 8 4V28C8 30.22 9.8 32 12 32H36C38.22 32 40 30.22 40 28V4C40 1.78 38.2 0 36 0ZM36 28H12V4H36V28Z"
    fill="var(--icon-color, #1D2B2A)" />
</svg>
