<svg width="100%" height="100%" viewBox="0 0 35 36" fill="none" xmlns="http://www.w3.org/2000/svg">
  <path
    d="M34.2 30.6L28.8 25.2V28.8H21.6V32.4H28.8V36L34.2 30.6ZM16.2 30.6C16.2 30.06 16.2 29.34 16.38 28.8H3.6V25.2H17.64C18.54 23.76 19.62 22.5 21.06 21.6H3.6V18H25.2V19.98C25.74 19.8 26.46 19.8 27 19.8C27.54 19.8 28.26 19.8 28.8 19.98V10.8L18 0H3.6C1.62 0 0 1.62 0 3.6V32.4C0 34.38 1.62 36 3.6 36H17.64C16.74 34.38 16.2 32.58 16.2 30.6ZM16.2 2.7L26.1 12.6H16.2V2.7Z"
    fill="var(--icon-color, #1D2B2A)" />
</svg>
