<svg width="100%" height="100%" viewBox="0 0 19 19" fill="none" xmlns="http://www.w3.org/2000/svg">
<path d="M6.86394 1.14049H4.81647C4.30634 1.14049 3.20129 2.52215 2.86908 2.85297C2.38258 3.33947 1.935 3.84265 1.5041 4.33471C1.06903 4.82955 1.01065 5.57876 1.39846 6.11113C1.54163 6.3099 1.69731 6.5045 1.87523 6.68103C2.05176 6.85756 2.24497 7.01463 2.44513 7.1578C2.97611 7.54422 3.72671 7.48584 4.22155 7.05216C4.25871 7.02019 4.30427 6.99958 4.35281 6.99276C4.40135 6.98595 4.45082 6.99323 4.49534 7.01373C4.53986 7.03423 4.57755 7.0671 4.60393 7.10841C4.6303 7.14972 4.64425 7.19774 4.64411 7.24676C4.61075 10.2742 4.60658 13.8187 4.71361 16.3707C4.72182 16.6293 4.80778 16.8795 4.96027 17.0885C5.11276 17.2975 5.32471 17.4557 5.56846 17.5425C8.27896 18.4807 10.8352 18.3765 13.5151 17.5286C13.7708 17.4458 13.9947 17.2862 14.1564 17.0716C14.3181 16.8569 14.4096 16.5976 14.4186 16.329C14.5242 13.7811 14.5215 10.2575 14.4881 7.24676C14.4876 7.19775 14.5013 7.14965 14.5275 7.10823C14.5537 7.06681 14.5913 7.03384 14.6358 7.01328C14.6802 6.99272 14.7297 6.98546 14.7782 6.99235C14.8268 6.99925 14.8723 7.02002 14.9093 7.05216C15.4041 7.48723 16.1533 7.54561 16.6857 7.15919C16.8879 7.01502 17.0785 6.85514 17.2556 6.68103C17.4335 6.5045 17.5892 6.31129 17.7337 6.11113C18.1202 5.57876 18.0618 4.82955 17.6281 4.33471C17.1972 3.84265 16.7482 3.33947 16.2617 2.85297C15.9337 2.52493 14.8314 1.14049 14.3143 1.14049H11.9625C11.837 1.72342 11.5155 2.24575 11.0516 2.62042C10.5878 2.99508 10.0095 3.19944 9.4132 3.19944C8.81692 3.19944 8.23864 2.99508 7.77476 2.62042C7.31088 2.24575 6.98941 1.72342 6.86394 1.14049Z" stroke="var(--icon-color, #02FF47)" stroke-width="1.5" stroke-linecap="round" stroke-linejoin="round"/>
</svg>
