<svg width="100%" height="100%" viewBox="0 0 20 14" fill="none" xmlns="http://www.w3.org/2000/svg">
  <path
    d="M16.3636 1.86667H9.09091V8.4H1.81818V0H0V14H1.81818V11.2H18.1818V14H20V5.6C20 4.60986 19.6169 3.66027 18.9349 2.96013C18.253 2.26 17.3281 1.86667 16.3636 1.86667ZM5.45455 7.46667C6.17786 7.46667 6.87156 7.17167 7.38302 6.64657C7.89448 6.12146 8.18182 5.40927 8.18182 4.66667C8.18182 3.92406 7.89448 3.21187 7.38302 2.68677C6.87156 2.16167 6.17786 1.86667 5.45455 1.86667C4.73123 1.86667 4.03754 2.16167 3.52607 2.68677C3.01461 3.21187 2.72727 3.92406 2.72727 4.66667C2.72727 5.40927 3.01461 6.12146 3.52607 6.64657C4.03754 7.17167 4.73123 7.46667 5.45455 7.46667Z"
    fill="var(--icon-color, #1D2B2A)" />
</svg>
