<svg width="100%" height="100%" viewBox="0 0 20 11" fill="none" fill="none" xmlns="http://www.w3.org/2000/svg">
<path d="M11.2423 1.57794H6.39386V5.9335H1.54537V0.333496H0.333252V9.66683H1.54537V7.80016H12.4545V9.66683H13.6666V4.06683C13.6666 3.40674 13.4112 2.77368 12.9565 2.30692C12.5019 1.84016 11.8853 1.57794 11.2423 1.57794ZM3.96962 5.31127C4.45183 5.31127 4.91429 5.11461 5.25526 4.76454C5.59624 4.41447 5.7878 3.93968 5.7878 3.44461C5.7878 2.94954 5.59624 2.47474 5.25526 2.12467C4.91429 1.77461 4.45183 1.57794 3.96962 1.57794C3.4874 1.57794 3.02494 1.77461 2.68397 2.12467C2.34299 2.47474 2.15143 2.94954 2.15143 3.44461C2.15143 3.93968 2.34299 4.41447 2.68397 4.76454C3.02494 5.11461 3.4874 5.31127 3.96962 5.31127Z" fill="#1D2B2A"/>
</svg>
