<svg width="100%" height="100%" viewBox="0 0 40 40" fill="none" xmlns="http://www.w3.org/2000/svg">
  <path
    d="M0 0V7C2.2 7 4 9.24 4 12C4 14.76 2.2 17 0 17V23C2.2 23 4 25.24 4 28C4 30.76 2.2 33 0 33V40H7C7 37.8 9.24 36 12 36C14.76 36 17 37.8 17 40H23C23 37.8 25.24 36 28 36C30.76 36 33 37.8 33 40H40V33C37.8 33 36 30.76 36 28C36 25.24 37.8 23 40 23V17C37.8 17 36 14.76 36 12C36 9.24 37.8 7 40 7V0H33C33 2.2 30.76 4 28 4C25.24 4 23 2.2 23 0H17C17 2.2 14.76 4 12 4C9.24 4 7 2.2 7 0H0ZM8 8H32V32H8V8ZM14 10C12.9391 10 11.9217 10.4214 11.1716 11.1716C10.4214 11.9217 10 12.9391 10 14C10 15.0609 10.4214 16.0783 11.1716 16.8284C11.9217 17.5786 12.9391 18 14 18C15.0609 18 16.0783 17.5786 16.8284 16.8284C17.5786 16.0783 18 15.0609 18 14C18 12.9391 17.5786 11.9217 16.8284 11.1716C16.0783 10.4214 15.0609 10 14 10ZM30 16L24 22L20 20L10 30H30V16Z"
    fill="var(--icon-color, #1D2B2A)" />
</svg>
