<svg width="100%" height="100%" viewBox="0 0 19 19" fill="none" xmlns="http://www.w3.org/2000/svg">
<path d="M12.26 8.13298V8.82798" stroke="var(--icon-color, #02FF47)" stroke-width="1.5" stroke-linecap="round" stroke-linejoin="round"/>
<path d="M12.26 3.96298V4.65798" stroke="var(--icon-color, #02FF47)" stroke-width="1.5" stroke-linecap="round" stroke-linejoin="round"/>
<path d="M12.26 12.303V12.998" stroke="var(--icon-color, #02FF47)" stroke-width="1.5" stroke-linecap="round" stroke-linejoin="round"/>
<path d="M18.1675 4.35497V5.97154C17.6689 6.18656 17.2442 6.54289 16.9458 6.99654C16.6474 7.45018 16.4884 7.98128 16.4884 8.52427C16.4884 9.06726 16.6474 9.59836 16.9458 10.052C17.2442 10.5057 17.6689 10.862 18.1675 11.077V12.695C18.1675 14.2295 17.0652 15.2567 15.3875 15.475C10.7741 16.0727 8.19423 16.0768 3.57248 15.475C1.94201 15.2623 0.79248 14.2295 0.79248 12.695V11.077C1.29108 10.862 1.71579 10.5057 2.01419 10.052C2.31258 9.59836 2.4716 9.06726 2.4716 8.52427C2.4716 7.98128 2.31258 7.45018 2.01419 6.99654C1.71579 6.54289 1.29108 6.18656 0.79248 5.97154V4.35497C0.79248 2.81902 1.95313 1.8488 3.57248 1.57497C8.13863 0.799346 10.7546 0.916106 15.3875 1.57497C16.9193 1.79181 18.1675 2.81902 18.1675 4.35497Z" stroke="var(--icon-color, #02FF47)" stroke-width="1.5" stroke-linecap="round" stroke-linejoin="round"/>
</svg>
