<svg width="100%" height="100%" viewBox="0 0 16 14" fill="none" xmlns="http://www.w3.org/2000/svg">
  <path
    d="M15.7623 2.29114C15.2057 2.53781 14.6077 2.70447 13.979 2.77981C14.6203 2.39581 15.1123 1.78647 15.3443 1.06114C14.7443 1.41714 14.0797 1.67581 13.3723 1.81447C12.8057 1.21181 11.999 0.834473 11.1057 0.834473C9.391 0.834473 8.00033 2.22514 8.00033 3.94114C8.00033 4.18381 8.02833 4.41981 8.08033 4.64781C5.49833 4.51781 3.211 3.28114 1.679 1.40247C1.41233 1.86247 1.259 2.39581 1.259 2.96381C1.259 4.04114 1.80767 4.99247 2.64033 5.54914C2.131 5.53247 1.65233 5.39314 1.23367 5.16047V5.20047C1.23367 6.70514 2.30367 7.96047 3.725 8.24581C3.46367 8.31647 3.18967 8.35381 2.907 8.35381C2.707 8.35381 2.51167 8.33514 2.32233 8.29914C2.71767 9.53247 3.86433 10.4311 5.22367 10.4551C4.16033 11.2885 2.821 11.7851 1.36633 11.7851C1.11567 11.7851 0.868333 11.7705 0.625 11.7418C1.99967 12.6238 3.63167 13.1371 5.385 13.1371C11.0983 13.1371 14.2217 8.40514 14.2217 4.30114C14.2217 4.16781 14.2183 4.03314 14.2123 3.89981C14.819 3.46114 15.3457 2.91514 15.761 2.29314L15.7623 2.29114Z"
    fill="var(--icon-color, #1D2B2A)" />
</svg>
