<svg width="840" height="270" viewBox="0 0 840 270" fill="none" xmlns="http://www.w3.org/2000/svg">
<g opacity="0.12">
<path fill-rule="evenodd" clip-rule="evenodd" d="M-114.582 853.885L-86.6863 791.46L-18.6259 798.537L16.6918 859.652L-25.4226 883.944L-33.7367 869.557L-13.2127 857.719L-74.2216 813.03L-65.9885 888.16L-45.4646 876.322L-37.1505 890.708L-79.2641 915L-114.582 853.885Z" fill="#DEAE6A"/>
<path fill-rule="evenodd" clip-rule="evenodd" d="M-10.0968 793.617L17.7985 731.192L85.859 738.269L121.177 799.384L79.062 823.676L70.748 809.289L91.2719 797.451L30.263 752.762L38.4962 827.892L59.02 816.054L67.3341 830.441L25.2208 854.732L-10.0968 793.617Z" fill="#DEAE6A"/>
<path fill-rule="evenodd" clip-rule="evenodd" d="M94.3888 733.349L122.284 670.924L190.345 678.001L225.662 739.116L183.548 763.408L175.234 749.021L195.758 737.182L134.749 692.494L142.982 767.624L163.506 755.785L171.82 770.172L129.706 794.464L94.3888 733.349Z" fill="#DEAE6A"/>
<path fill-rule="evenodd" clip-rule="evenodd" d="M198.874 673.081L226.769 610.656L294.83 617.733L330.147 678.848L234.191 734.196L198.874 673.081ZM247.466 707.356L239.233 632.226L300.242 676.914L279.718 688.753L288.032 703.139L276.304 709.904L267.99 695.517L247.466 707.356Z" fill="#DEAE6A"/>
<path fill-rule="evenodd" clip-rule="evenodd" d="M303.359 612.813L331.255 550.387L399.315 557.465L434.633 618.579L338.677 673.927L303.359 612.813ZM351.952 647.087L343.719 571.957L404.728 616.646L384.204 628.484L392.518 642.871L380.79 649.636L372.476 635.249L351.952 647.087Z" fill="#DEAE6A"/>
<path fill-rule="evenodd" clip-rule="evenodd" d="M407.844 552.545L435.74 490.119L503.8 497.197L539.118 558.311L443.162 613.66L407.844 552.545ZM456.437 586.82L448.204 511.69L509.213 556.378L488.689 568.216L497.003 582.603L485.275 589.368L476.961 574.981L456.437 586.82Z" fill="#DEAE6A"/>
<path fill-rule="evenodd" clip-rule="evenodd" d="M512.33 492.277L540.225 429.851L608.286 436.929L643.604 498.043L547.648 553.391L512.33 492.277ZM560.923 526.551L552.69 451.421L613.699 496.11L593.175 507.948L601.489 522.335L589.761 529.1L581.447 514.713L560.923 526.551Z" fill="#DEAE6A"/>
<path fill-rule="evenodd" clip-rule="evenodd" d="M616.815 432.009L644.711 369.583L712.771 376.66L748.089 437.775L652.133 493.123L616.815 432.009ZM665.408 466.283L657.175 391.153L718.184 435.842L697.66 447.68L705.974 462.067L694.246 468.832L685.932 454.445L665.408 466.283Z" fill="#DEAE6A"/>
<path fill-rule="evenodd" clip-rule="evenodd" d="M721.3 371.741L749.195 309.315L817.256 316.392L852.573 377.507L756.618 432.855L721.3 371.741ZM769.893 406.015L761.66 330.885L822.669 375.573L802.145 387.412L810.459 401.799L798.731 408.564L790.417 394.177L769.893 406.015Z" fill="#DEAE6A"/>
<path fill-rule="evenodd" clip-rule="evenodd" d="M825.786 311.472L853.681 249.047L921.742 256.124L957.059 317.239L861.103 372.587L825.786 311.472ZM874.379 345.747L866.146 270.617L927.155 315.305L906.631 327.144L914.945 341.531L903.217 348.295L894.903 333.908L874.379 345.747Z" fill="#DEAE6A"/>
<path fill-rule="evenodd" clip-rule="evenodd" d="M930.271 251.204L958.166 188.779L1026.23 195.856L1061.54 256.971L1019.43 281.263L1011.12 266.876L1031.64 255.037L970.631 210.349L978.864 285.479L999.388 273.641L1007.7 288.027L965.589 312.319L930.271 251.204Z" fill="#DEAE6A"/>
<path fill-rule="evenodd" clip-rule="evenodd" d="M1034.76 190.936L1062.65 128.511L1130.71 135.588L1166.03 196.703L1123.92 220.994L1115.6 206.607L1136.13 194.769L1075.12 150.081L1083.35 225.211L1103.87 213.372L1112.19 227.759L1070.07 252.051L1034.76 190.936Z" fill="#DEAE6A"/>
<path fill-rule="evenodd" clip-rule="evenodd" d="M1139.24 130.668L1167.14 68.2425L1235.2 75.3198L1270.51 136.434L1228.4 160.727L1220.09 146.34L1240.61 134.501L1179.6 89.8129L1187.83 164.943L1208.36 153.104L1216.67 167.491L1174.56 191.783L1139.24 130.668Z" fill="#DEAE6A"/>
<path fill-rule="evenodd" clip-rule="evenodd" d="M1243.73 70.4L1271.62 7.97443L1339.68 15.0518L1375 76.1663L1332.89 100.458L1324.57 86.0712L1345.1 74.2328L1284.09 29.5444L1292.32 104.674L1312.84 92.836L1321.16 107.223L1279.04 131.515L1243.73 70.4Z" fill="#DEAE6A"/>
<path fill-rule="evenodd" clip-rule="evenodd" d="M-383.198 268.527L-315.137 275.605L-287.242 213.179L-322.559 152.065L-364.674 176.357L-356.36 190.743L-335.836 178.905L-327.603 254.035L-388.612 209.347L-368.088 197.508L-376.402 183.122L-418.515 207.413L-383.198 268.527Z" fill="#DEAE6A"/>
<path fill-rule="evenodd" clip-rule="evenodd" d="M-278.713 208.259L-210.652 215.337L-182.757 152.911L-218.075 91.7966L-314.03 147.145L-278.713 208.259ZM-284.126 149.079L-223.117 193.767L-231.351 118.637L-251.874 130.475L-260.189 116.089L-271.917 122.853L-263.602 137.24L-284.126 149.079Z" fill="#DEAE6A"/>
<path fill-rule="evenodd" clip-rule="evenodd" d="M-174.227 147.991L-106.167 155.068L-78.2714 92.6429L-113.589 31.5284L-155.704 55.8206L-147.39 70.2074L-126.866 58.369L-118.633 133.499L-179.642 88.8105L-159.118 76.9722L-167.432 62.5854L-209.545 86.8766L-174.227 147.991Z" fill="#DEAE6A"/>
<path fill-rule="evenodd" clip-rule="evenodd" d="M-69.7422 87.7232L-1.6817 94.8005L26.2137 32.3749L-9.10394 -28.7396L-105.06 26.6086L-69.7422 87.7232ZM-75.1556 28.5424L-14.1468 73.2308L-22.3799 -1.89911L-42.9038 9.93921L-51.2179 -4.44769L-62.9458 2.31708L-54.6317 16.704L-75.1556 28.5424Z" fill="#DEAE6A"/>
<path fill-rule="evenodd" clip-rule="evenodd" d="M34.7429 27.455L102.803 34.5323L130.699 -27.8932L95.3812 -89.0078L-0.574707 -33.6595L34.7429 27.455ZM29.3287 -31.7253L90.3376 12.963L82.1045 -62.1669L61.5806 -50.3285L53.2665 -64.7155L41.5386 -57.9507L49.8527 -43.5638L29.3287 -31.7253Z" fill="#DEAE6A"/>
<path fill-rule="evenodd" clip-rule="evenodd" d="M139.229 -32.813L207.289 -25.7358L235.184 -88.1613L199.867 -149.276L157.752 -124.984L166.066 -110.597L186.59 -122.435L194.823 -47.3055L133.815 -91.9939L154.339 -103.832L146.024 -118.219L103.911 -93.9276L139.229 -32.813Z" fill="#DEAE6A"/>
<path fill-rule="evenodd" clip-rule="evenodd" d="M243.714 -93.0813L311.774 -86.004L339.669 -148.43L304.352 -209.544L208.396 -154.196L243.714 -93.0813ZM238.299 -152.262L299.308 -107.573L291.075 -182.703L270.551 -170.865L262.237 -185.252L250.509 -178.487L258.823 -164.1L238.299 -152.262Z" fill="#DEAE6A"/>
<path fill-rule="evenodd" clip-rule="evenodd" d="M348.199 -153.349L416.259 -146.272L444.154 -208.698L408.837 -269.812L312.881 -214.464L348.199 -153.349ZM342.785 -212.53L403.794 -167.842L395.561 -242.972L375.037 -231.133L366.723 -245.52L354.995 -238.755L363.309 -224.368L342.785 -212.53Z" fill="#DEAE6A"/>
<path fill-rule="evenodd" clip-rule="evenodd" d="M452.684 -213.617L520.745 -206.54L548.64 -268.966L513.322 -330.08L471.208 -305.788L479.522 -291.401L500.046 -303.24L508.279 -228.11L447.27 -272.798L467.794 -284.636L459.48 -299.023L417.367 -274.732L452.684 -213.617Z" fill="#DEAE6A"/>
<path fill-rule="evenodd" clip-rule="evenodd" d="M557.169 -273.886L625.23 -266.808L653.125 -329.234L617.807 -390.348L521.852 -335L557.169 -273.886ZM551.756 -333.066L612.765 -288.378L604.531 -363.508L584.008 -351.669L575.693 -366.056L563.966 -359.292L572.28 -344.905L551.756 -333.066Z" fill="#DEAE6A"/>
<path fill-rule="evenodd" clip-rule="evenodd" d="M661.654 -334.154L729.715 -327.076L757.61 -389.502L722.292 -450.616L680.178 -426.324L688.492 -411.937L709.016 -423.776L717.249 -348.646L656.24 -393.334L676.764 -405.173L668.45 -419.559L626.337 -395.268L661.654 -334.154Z" fill="#DEAE6A"/>
<path fill-rule="evenodd" clip-rule="evenodd" d="M766.14 -394.422L834.2 -387.344L862.096 -449.77L826.778 -510.885L784.664 -486.593L792.978 -472.206L813.502 -484.044L821.735 -408.914L760.726 -453.602L781.25 -465.441L772.936 -479.828L730.822 -455.536L766.14 -394.422Z" fill="#DEAE6A"/>
<path fill-rule="evenodd" clip-rule="evenodd" d="M870.625 -454.69L938.685 -447.612L966.581 -510.038L931.263 -571.153L889.149 -546.86L897.463 -532.474L917.986 -544.312L926.22 -469.182L865.211 -513.87L885.735 -525.709L877.421 -540.096L835.307 -515.804L870.625 -454.69Z" fill="#DEAE6A"/>
<path fill-rule="evenodd" clip-rule="evenodd" d="M975.11 -514.958L1043.17 -507.881L1071.07 -570.306L1035.75 -631.421L993.634 -607.129L1001.95 -592.742L1022.47 -604.58L1030.71 -529.45L969.697 -574.139L990.221 -585.977L981.906 -600.364L939.793 -576.073L975.11 -514.958Z" fill="#DEAE6A"/>
<path fill-rule="evenodd" clip-rule="evenodd" d="M-213.686 682.392L-185.791 619.966L-117.731 627.044L-82.4131 688.158L-124.527 712.45L-132.841 698.063L-112.318 686.225L-173.326 641.536L-165.093 716.666L-144.569 704.828L-136.255 719.215L-178.369 743.506L-213.686 682.392Z" fill="#DEAE6A"/>
<path fill-rule="evenodd" clip-rule="evenodd" d="M-109.202 622.124L-81.3063 559.698L-13.2458 566.776L22.0718 627.89L-73.8841 683.239L-109.202 622.124ZM-60.6087 656.399L-68.8419 581.269L-7.83298 625.957L-28.3568 637.795L-20.0428 652.182L-31.7707 658.947L-40.0848 644.56L-60.6087 656.399Z" fill="#DEAE6A"/>
<path fill-rule="evenodd" clip-rule="evenodd" d="M-4.71603 561.856L23.1793 499.43L91.2397 506.507L126.557 567.622L84.4431 591.914L76.129 577.527L96.6529 565.689L35.644 521L43.8771 596.13L64.4011 584.292L72.7151 598.679L30.6016 622.97L-4.71603 561.856Z" fill="#DEAE6A"/>
<path fill-rule="evenodd" clip-rule="evenodd" d="M99.769 501.588L127.664 439.162L195.725 446.239L231.042 507.354L188.928 531.646L180.614 517.259L201.138 505.421L140.129 460.732L148.362 535.862L168.886 524.024L177.2 538.411L135.087 562.702L99.769 501.588Z" fill="#DEAE6A"/>
<path fill-rule="evenodd" clip-rule="evenodd" d="M204.255 441.319L232.15 378.894L300.21 385.971L335.528 447.086L293.414 471.378L285.1 456.991L305.624 445.152L244.615 400.464L252.848 475.594L273.372 463.756L281.686 478.142L239.572 502.434L204.255 441.319Z" fill="#DEAE6A"/>
<path fill-rule="evenodd" clip-rule="evenodd" d="M308.74 381.051L336.635 318.626L404.695 325.703L440.013 386.818L344.057 442.166L308.74 381.051ZM357.332 415.326L349.099 340.196L410.108 384.885L389.584 396.723L397.898 411.11L386.17 417.875L377.856 403.488L357.332 415.326Z" fill="#DEAE6A"/>
<path fill-rule="evenodd" clip-rule="evenodd" d="M413.225 320.783L441.121 258.358L509.181 265.435L544.499 326.55L448.543 381.898L413.225 320.783ZM461.818 355.058L453.585 279.928L514.594 324.616L494.07 336.455L502.384 350.842L490.656 357.606L482.342 343.219L461.818 355.058Z" fill="#DEAE6A"/>
<path fill-rule="evenodd" clip-rule="evenodd" d="M517.71 260.515L545.606 198.09L613.666 205.167L648.984 266.281L553.028 321.63L517.71 260.515ZM566.303 294.79L558.07 219.66L619.079 264.348L598.555 276.186L606.87 290.573L595.141 297.338L586.827 282.951L566.303 294.79Z" fill="#DEAE6A"/>
<path fill-rule="evenodd" clip-rule="evenodd" d="M622.196 200.247L650.091 137.821L718.152 144.899L753.469 206.013L657.513 261.361L622.196 200.247ZM670.789 234.522L662.555 159.392L723.564 204.08L703.04 215.918L711.354 230.305L699.627 237.07L691.312 222.683L670.789 234.522Z" fill="#DEAE6A"/>
<path fill-rule="evenodd" clip-rule="evenodd" d="M726.681 139.979L754.576 77.5534L822.637 84.6307L857.954 145.745L761.999 201.094L726.681 139.979ZM775.274 174.253L767.041 99.1234L828.05 143.812L807.526 155.65L815.84 170.037L804.112 176.802L795.798 162.415L775.274 174.253Z" fill="#DEAE6A"/>
<path fill-rule="evenodd" clip-rule="evenodd" d="M831.166 79.7109L859.061 17.2853L927.122 24.3626L962.439 85.4772L920.325 109.769L912.011 95.3823L932.535 83.5439L871.526 38.8555L879.759 113.985L900.283 102.147L908.597 116.534L866.484 140.825L831.166 79.7109Z" fill="#DEAE6A"/>
<path fill-rule="evenodd" clip-rule="evenodd" d="M935.651 19.4427L963.547 -42.9828L1031.61 -35.9055L1066.92 25.209L970.969 80.5573L935.651 19.4427ZM984.245 53.7171L976.012 -21.4129L1037.02 23.2756L1016.5 35.114L1024.81 49.5009L1013.08 56.2657L1004.77 41.8787L984.245 53.7171Z" fill="#DEAE6A"/>
<path fill-rule="evenodd" clip-rule="evenodd" d="M1040.14 -40.8255L1068.03 -103.251L1136.09 -96.1737L1171.41 -35.0591L1129.3 -10.7668L1120.98 -25.1538L1141.5 -36.9922L1080.5 -81.6806L1088.73 -6.55066L1109.25 -18.389L1117.57 -4.00208L1075.45 20.2891L1040.14 -40.8255Z" fill="#DEAE6A"/>
<path fill-rule="evenodd" clip-rule="evenodd" d="M1144.62 -101.094L1172.52 -163.519L1240.58 -156.442L1275.9 -95.3272L1179.94 -39.979L1144.62 -101.094ZM1193.21 -66.8192L1184.98 -141.949L1245.99 -97.2607L1225.47 -85.4223L1233.78 -71.0353L1222.05 -64.2705L1213.74 -78.6575L1193.21 -66.8192Z" fill="#DEAE6A"/>
<path fill-rule="evenodd" clip-rule="evenodd" d="M-284.093 440.021L-216.033 447.099L-188.137 384.673L-223.455 323.558L-265.57 347.85L-257.256 362.237L-236.732 350.399L-228.499 425.529L-289.507 380.84L-268.984 369.002L-277.298 354.615L-319.411 378.907L-284.093 440.021Z" fill="#DEAE6A"/>
<path fill-rule="evenodd" clip-rule="evenodd" d="M-179.608 379.753L-111.548 386.83L-83.6523 324.405L-118.97 263.29L-214.926 318.639L-179.608 379.753ZM-185.022 320.572L-124.013 365.261L-132.246 290.131L-152.77 301.969L-161.084 287.582L-172.812 294.347L-164.498 308.734L-185.022 320.572Z" fill="#DEAE6A"/>
<path fill-rule="evenodd" clip-rule="evenodd" d="M-75.1225 319.485L-7.06207 326.562L20.8333 264.137L-14.4843 203.022L-56.5989 227.314L-48.2848 241.701L-27.7609 229.863L-19.5278 304.993L-80.5367 260.304L-60.0128 248.466L-68.3268 234.079L-110.44 258.37L-75.1225 319.485Z" fill="#DEAE6A"/>
<path fill-rule="evenodd" clip-rule="evenodd" d="M29.3625 259.217L97.423 266.294L125.318 203.869L90.0008 142.754L-5.95505 198.102L29.3625 259.217ZM23.9489 200.036L84.9578 244.725L76.7246 169.595L56.2007 181.433L47.8867 167.046L36.1588 173.811L44.4728 188.198L23.9489 200.036Z" fill="#DEAE6A"/>
<path fill-rule="evenodd" clip-rule="evenodd" d="M133.848 198.949L201.908 206.026L229.803 143.601L194.486 82.486L98.53 137.834L133.848 198.949ZM128.433 139.768L189.442 184.457L181.209 109.327L160.685 121.165L152.371 106.778L140.643 113.543L148.957 127.93L128.433 139.768Z" fill="#DEAE6A"/>
<path fill-rule="evenodd" clip-rule="evenodd" d="M238.333 138.681L306.394 145.758L334.289 83.3325L298.971 22.218L203.016 77.5662L238.333 138.681ZM232.92 79.4999L293.928 124.188L285.695 49.0584L265.171 60.8968L256.857 46.5099L245.129 53.2746L253.444 67.6616L232.92 79.4999Z" fill="#DEAE6A"/>
<path fill-rule="evenodd" clip-rule="evenodd" d="M342.818 78.4126L410.879 85.4899L438.774 23.0643L403.456 -38.0502L307.501 17.298L342.818 78.4126ZM337.404 19.2322L398.413 63.9206L390.18 -11.2094L369.656 0.629028L361.342 -13.7579L349.614 -6.9931L357.928 7.3938L337.404 19.2322Z" fill="#DEAE6A"/>
<path fill-rule="evenodd" clip-rule="evenodd" d="M447.304 18.1445L515.364 25.2218L543.26 -37.2037L507.942 -98.3182L411.986 -42.97L447.304 18.1445ZM441.89 -41.0363L502.899 3.65216L494.666 -71.4778L474.142 -59.6395L465.828 -74.0264L454.1 -67.2616L462.414 -52.8746L441.89 -41.0363Z" fill="#DEAE6A"/>
<path fill-rule="evenodd" clip-rule="evenodd" d="M551.789 -42.1235L619.849 -35.0462L647.745 -97.4717L612.427 -158.586L570.312 -134.294L578.627 -119.907L599.15 -131.746L607.384 -56.6157L546.375 -101.304L566.899 -113.143L558.584 -127.529L516.471 -103.238L551.789 -42.1235Z" fill="#DEAE6A"/>
<path fill-rule="evenodd" clip-rule="evenodd" d="M656.274 -102.392L724.334 -95.3144L752.23 -157.74L716.912 -218.855L620.956 -163.506L656.274 -102.392ZM650.86 -161.572L711.869 -116.884L703.636 -192.014L683.112 -180.176L674.798 -194.563L663.07 -187.798L671.384 -173.411L650.86 -161.572Z" fill="#DEAE6A"/>
<path fill-rule="evenodd" clip-rule="evenodd" d="M760.759 -162.66L828.819 -155.582L856.715 -218.008L821.397 -279.122L779.282 -254.83L787.596 -240.444L808.12 -252.282L816.354 -177.152L755.345 -221.84L775.869 -233.679L767.555 -248.066L725.441 -223.774L760.759 -162.66Z" fill="#DEAE6A"/>
<path fill-rule="evenodd" clip-rule="evenodd" d="M865.245 -222.928L933.305 -215.851L961.2 -278.276L925.883 -339.391L829.927 -284.042L865.245 -222.928ZM859.831 -282.109L920.84 -237.42L912.607 -312.55L892.083 -300.712L883.769 -315.099L872.041 -308.334L880.355 -293.947L859.831 -282.109Z" fill="#DEAE6A"/>
<path fill-rule="evenodd" clip-rule="evenodd" d="M969.73 -283.196L1037.79 -276.119L1065.69 -338.544L1030.37 -399.659L988.253 -375.367L996.567 -360.98L1017.09 -372.818L1025.32 -297.688L964.315 -342.377L984.839 -354.215L976.525 -368.602L934.412 -344.311L969.73 -283.196Z" fill="#DEAE6A"/>
<path fill-rule="evenodd" clip-rule="evenodd" d="M1074.22 -343.464L1142.28 -336.387L1170.17 -398.812L1134.85 -459.927L1038.9 -404.579L1074.22 -343.464ZM1068.8 -402.645L1129.81 -357.956L1121.58 -433.086L1101.05 -421.248L1092.74 -435.635L1081.01 -428.87L1089.33 -414.483L1068.8 -402.645Z" fill="#DEAE6A"/>
<path fill-rule="evenodd" clip-rule="evenodd" d="M-312.791 510.898L-284.895 448.473L-216.835 455.55L-181.517 516.665L-223.632 540.957L-231.946 526.57L-211.422 514.731L-272.431 470.043L-264.197 545.173L-243.674 533.334L-235.36 547.721L-277.473 572.013L-312.791 510.898Z" fill="#DEAE6A"/>
<path fill-rule="evenodd" clip-rule="evenodd" d="M-208.306 450.63L-180.41 388.205L-112.35 395.282L-77.0324 456.397L-172.988 511.745L-208.306 450.63ZM-159.713 484.905L-167.946 409.775L-106.937 454.463L-127.461 466.302L-119.147 480.689L-130.875 487.453L-139.189 473.067L-159.713 484.905Z" fill="#DEAE6A"/>
<path fill-rule="evenodd" clip-rule="evenodd" d="M-103.82 390.362L-75.9248 327.937L-7.86438 335.014L27.4532 396.128L-14.661 420.42L-22.9751 406.033L-2.45114 394.195L-63.4601 349.507L-55.2269 424.637L-34.703 412.798L-26.389 427.185L-68.5026 451.477L-103.82 390.362Z" fill="#DEAE6A"/>
<path fill-rule="evenodd" clip-rule="evenodd" d="M0.664856 330.094L28.5602 267.669L96.6207 274.746L131.938 335.86L35.9824 391.209L0.664856 330.094ZM49.2575 364.369L41.0243 289.239L102.033 333.927L81.5093 345.766L89.8234 360.152L78.0955 366.917L69.7814 352.53L49.2575 364.369Z" fill="#DEAE6A"/>
<path fill-rule="evenodd" clip-rule="evenodd" d="M105.15 269.826L133.046 207.4L201.106 214.478L236.424 275.592L140.468 330.94L105.15 269.826ZM153.743 304.1L145.51 228.97L206.519 273.659L185.995 285.497L194.309 299.884L182.581 306.649L174.267 292.262L153.743 304.1Z" fill="#DEAE6A"/>
<path fill-rule="evenodd" clip-rule="evenodd" d="M209.635 209.558L237.531 147.132L305.591 154.21L340.909 215.324L244.953 270.672L209.635 209.558ZM258.228 243.832L249.995 168.703L311.004 213.391L290.48 225.229L298.794 239.616L287.066 246.381L278.752 231.994L258.228 243.832Z" fill="#DEAE6A"/>
<path fill-rule="evenodd" clip-rule="evenodd" d="M314.121 149.29L342.016 86.8641L410.077 93.9414L445.395 155.056L349.439 210.404L314.121 149.29ZM362.714 183.564L354.481 108.434L415.49 153.123L394.966 164.961L403.28 179.348L391.552 186.113L383.238 171.726L362.714 183.564Z" fill="#DEAE6A"/>
<path fill-rule="evenodd" clip-rule="evenodd" d="M418.606 89.0216L446.501 26.5961L514.562 33.6733L549.88 94.7879L507.765 119.08L499.451 104.693L519.975 92.8545L458.966 48.166L467.199 123.296L487.723 111.458L496.037 125.845L453.924 150.136L418.606 89.0216Z" fill="#DEAE6A"/>
<path fill-rule="evenodd" clip-rule="evenodd" d="M523.092 28.7534L550.987 -33.6722L619.048 -26.5948L654.365 34.5197L558.409 89.8679L523.092 28.7534ZM571.685 63.0279L563.451 -12.1021L624.46 32.5864L603.936 44.4247L612.25 58.8117L600.523 65.5765L592.208 51.1896L571.685 63.0279Z" fill="#DEAE6A"/>
<path fill-rule="evenodd" clip-rule="evenodd" d="M627.577 -31.5146L655.472 -93.9401L723.533 -86.8629L758.85 -25.7483L716.736 -1.45642L708.422 -15.8434L728.946 -27.6818L667.937 -72.3702L676.17 2.75977L696.694 -9.07855L705.008 5.30835L662.894 29.6L627.577 -31.5146Z" fill="#DEAE6A"/>
<path fill-rule="evenodd" clip-rule="evenodd" d="M732.062 -91.7826L759.957 -154.208L828.018 -147.131L863.335 -86.0163L821.221 -61.7244L812.907 -76.1113L833.431 -87.9496L772.422 -132.638L780.655 -57.5081L801.179 -69.3465L809.493 -54.9596L767.379 -30.668L732.062 -91.7826Z" fill="#DEAE6A"/>
<path fill-rule="evenodd" clip-rule="evenodd" d="M836.547 -152.051L864.443 -214.476L932.503 -207.399L967.821 -146.285L925.707 -121.993L917.393 -136.38L937.917 -148.218L876.908 -192.906L885.141 -117.776L905.665 -129.615L913.979 -115.228L871.865 -90.9363L836.547 -152.051Z" fill="#DEAE6A"/>
<path fill-rule="evenodd" clip-rule="evenodd" d="M941.032 -212.319L968.928 -274.745L1036.99 -267.667L1072.31 -206.553L1030.19 -182.26L1021.88 -196.647L1042.4 -208.486L981.392 -253.174L989.625 -178.044L1010.15 -189.883L1018.46 -175.496L976.35 -151.204L941.032 -212.319Z" fill="#DEAE6A"/>
<path fill-rule="evenodd" clip-rule="evenodd" d="M1045.52 -272.587L1073.41 -335.013L1141.47 -327.935L1176.79 -266.821L1134.68 -242.529L1126.36 -256.916L1146.89 -268.754L1085.88 -313.443L1094.11 -238.313L1114.64 -250.151L1122.95 -235.764L1080.84 -211.473L1045.52 -272.587Z" fill="#DEAE6A"/>
<path fill-rule="evenodd" clip-rule="evenodd" d="M-184.988 611.515L-116.928 618.592L-89.0326 556.166L-124.35 495.052L-166.465 519.344L-158.151 533.731L-137.627 521.893L-129.394 597.023L-190.403 552.334L-169.879 540.496L-178.193 526.109L-220.306 550.4L-184.988 611.515Z" fill="#DEAE6A"/>
<path fill-rule="evenodd" clip-rule="evenodd" d="M-80.5033 551.247L-12.4428 558.324L15.4526 495.899L-19.8651 434.784L-115.821 490.132L-80.5033 551.247ZM-85.9169 492.066L-24.9081 536.754L-33.1412 461.624L-53.6651 473.463L-61.9792 459.076L-73.7071 465.841L-65.393 480.228L-85.9169 492.066Z" fill="#DEAE6A"/>
<path fill-rule="evenodd" clip-rule="evenodd" d="M23.9823 490.979L92.0428 498.056L119.938 435.63L84.6205 374.516L-11.3353 429.864L23.9823 490.979ZM18.5682 431.798L79.577 476.487L71.3439 401.357L50.8201 413.195L42.5059 398.808L30.778 405.573L39.092 419.96L18.5682 431.798Z" fill="#DEAE6A"/>
<path fill-rule="evenodd" clip-rule="evenodd" d="M128.467 430.711L196.528 437.788L224.423 375.362L189.106 314.248L93.1498 369.596L128.467 430.711ZM123.054 371.53L184.063 416.218L175.83 341.088L155.306 352.927L146.991 338.54L135.264 345.305L143.578 359.691L123.054 371.53Z" fill="#DEAE6A"/>
<path fill-rule="evenodd" clip-rule="evenodd" d="M232.952 370.442L301.013 377.52L328.908 315.094L293.591 253.98L197.635 309.328L232.952 370.442ZM227.538 311.262L288.547 355.95L280.314 280.82L259.79 292.659L251.476 278.272L239.748 285.037L248.062 299.424L227.538 311.262Z" fill="#DEAE6A"/>
<path fill-rule="evenodd" clip-rule="evenodd" d="M337.438 310.174L405.498 317.252L433.394 254.826L398.076 193.711L302.12 249.06L337.438 310.174ZM332.024 250.994L393.033 295.682L384.8 220.552L364.276 232.39L355.962 218.003L344.234 224.768L352.548 239.155L332.024 250.994Z" fill="#DEAE6A"/>
<path fill-rule="evenodd" clip-rule="evenodd" d="M441.923 249.906L509.984 256.983L537.879 194.558L502.561 133.443L406.605 188.792L441.923 249.906ZM436.509 190.726L497.518 235.414L489.285 160.284L468.761 172.123L460.447 157.736L448.719 164.5L457.033 178.887L436.509 190.726Z" fill="#DEAE6A"/>
<path fill-rule="evenodd" clip-rule="evenodd" d="M546.408 189.638L614.469 196.715L642.364 134.29L607.046 73.1752L511.091 128.523L546.408 189.638ZM540.994 130.457L602.003 175.146L593.77 100.016L573.246 111.854L564.932 97.4673L553.204 104.232L561.518 118.619L540.994 130.457Z" fill="#DEAE6A"/>
<path fill-rule="evenodd" clip-rule="evenodd" d="M650.894 129.37L718.954 136.447L746.849 74.0219L711.532 12.9073L669.417 37.1994L677.731 51.5862L698.255 39.7479L706.488 114.878L645.479 70.1894L666.003 58.3511L657.689 43.9642L615.576 68.2556L650.894 129.37Z" fill="#DEAE6A"/>
<path fill-rule="evenodd" clip-rule="evenodd" d="M755.379 69.1019L823.439 76.1791L851.335 13.7536L816.017 -47.361L720.061 7.9873L755.379 69.1019ZM749.965 9.92114L810.974 54.6096L802.741 -20.5204L782.217 -8.68207L773.903 -23.0689L762.175 -16.3042L770.489 -1.91724L749.965 9.92114Z" fill="#DEAE6A"/>
<path fill-rule="evenodd" clip-rule="evenodd" d="M859.864 8.83386L927.924 15.9111L955.82 -46.5144L920.502 -107.629L878.387 -83.3368L886.701 -68.95L907.225 -80.7884L915.458 -5.65839L854.449 -50.3469L874.973 -62.1852L866.659 -76.572L824.546 -52.2807L859.864 8.83386Z" fill="#DEAE6A"/>
<path fill-rule="evenodd" clip-rule="evenodd" d="M964.349 -51.4343L1032.41 -44.3571L1060.31 -106.783L1024.99 -167.897L929.032 -112.549L964.349 -51.4343ZM958.936 -110.615L1019.94 -65.9266L1011.71 -141.057L991.188 -129.218L982.874 -143.605L971.146 -136.84L979.46 -122.453L958.936 -110.615Z" fill="#DEAE6A"/>
<path fill-rule="evenodd" clip-rule="evenodd" d="M1068.83 -111.702L1136.89 -104.625L1164.79 -167.051L1129.47 -228.165L1087.36 -203.873L1095.67 -189.486L1116.2 -201.325L1124.43 -126.195L1063.42 -170.883L1083.94 -182.721L1075.63 -197.108L1033.52 -172.817L1068.83 -111.702Z" fill="#DEAE6A"/>
<path fill-rule="evenodd" clip-rule="evenodd" d="M1173.32 -171.971L1241.38 -164.893L1269.28 -227.319L1233.96 -288.433L1138 -233.085L1173.32 -171.971ZM1167.91 -231.151L1228.92 -186.463L1220.68 -261.593L1200.16 -249.754L1191.84 -264.141L1180.12 -257.377L1188.43 -242.99L1167.91 -231.151Z" fill="#DEAE6A"/>
<path fill-rule="evenodd" clip-rule="evenodd" d="M-411.895 339.405L-384 276.979L-315.939 284.056L-280.622 345.171L-322.736 369.463L-331.05 355.076L-310.526 343.238L-371.535 298.549L-363.302 373.679L-342.778 361.841L-334.464 376.228L-376.578 400.519L-411.895 339.405Z" fill="#DEAE6A"/>
<path fill-rule="evenodd" clip-rule="evenodd" d="M-307.41 279.137L-279.515 216.711L-211.454 223.788L-176.137 284.903L-272.093 340.251L-307.41 279.137ZM-258.818 313.411L-267.051 238.281L-206.042 282.97L-226.566 294.808L-218.252 309.195L-229.98 315.96L-238.294 301.573L-258.818 313.411Z" fill="#DEAE6A"/>
<path fill-rule="evenodd" clip-rule="evenodd" d="M-202.925 218.868L-175.029 156.443L-106.969 163.52L-71.6512 224.635L-113.765 248.927L-122.079 234.54L-101.556 222.701L-162.564 178.013L-154.331 253.143L-133.807 241.305L-125.493 255.691L-167.607 279.983L-202.925 218.868Z" fill="#DEAE6A"/>
<path fill-rule="evenodd" clip-rule="evenodd" d="M-98.4396 158.6L-70.5443 96.1748L-2.48376 103.252L32.8338 164.367L-63.122 219.715L-98.4396 158.6ZM-49.847 192.875L-58.0801 117.745L2.92877 162.433L-17.5951 174.272L-9.28104 188.659L-21.009 195.424L-29.3231 181.037L-49.847 192.875Z" fill="#DEAE6A"/>
<path fill-rule="evenodd" clip-rule="evenodd" d="M6.04602 98.3321L33.9414 35.9066L102.002 42.9839L137.319 104.098L95.2052 128.39L86.8912 114.003L107.415 102.165L46.4062 57.4767L54.6393 132.607L75.1633 120.768L83.4772 135.155L41.3636 159.447L6.04602 98.3321Z" fill="#DEAE6A"/>
<path fill-rule="evenodd" clip-rule="evenodd" d="M110.531 38.0641L138.426 -24.3615L206.487 -17.2842L241.805 43.8304L145.849 99.1786L110.531 38.0641ZM159.124 72.3388L150.891 -2.7912L211.899 41.8973L191.376 53.7356L199.69 68.1225L187.962 74.8873L179.648 60.5004L159.124 72.3388Z" fill="#DEAE6A"/>
<path fill-rule="evenodd" clip-rule="evenodd" d="M215.017 -22.2041L242.912 -84.6296L310.972 -77.5524L346.29 -16.4377L250.334 38.9105L215.017 -22.2041ZM263.609 12.0705L255.376 -63.0594L316.385 -18.371L295.861 -6.53265L304.175 7.85431L292.447 14.619L284.133 0.232117L263.609 12.0705Z" fill="#DEAE6A"/>
<path fill-rule="evenodd" clip-rule="evenodd" d="M319.502 -82.4721L347.397 -144.898L415.458 -137.82L450.775 -76.7058L408.661 -52.4139L400.347 -66.8009L420.871 -78.6392L359.862 -123.328L368.095 -48.1977L388.619 -60.0361L396.933 -45.6492L354.819 -21.3575L319.502 -82.4721Z" fill="#DEAE6A"/>
<path fill-rule="evenodd" clip-rule="evenodd" d="M423.987 -142.74L451.883 -205.166L519.943 -198.089L555.261 -136.974L459.305 -81.6258L423.987 -142.74ZM472.58 -108.466L464.347 -183.596L525.356 -138.907L504.832 -127.069L513.146 -112.682L501.418 -105.917L493.104 -120.304L472.58 -108.466Z" fill="#DEAE6A"/>
<path fill-rule="evenodd" clip-rule="evenodd" d="M528.472 -203.008L556.368 -265.434L624.428 -258.357L659.746 -197.242L617.632 -172.95L609.318 -187.337L629.841 -199.175L568.833 -243.864L577.066 -168.734L597.59 -180.572L605.904 -166.185L563.79 -141.894L528.472 -203.008Z" fill="#DEAE6A"/>
<path fill-rule="evenodd" clip-rule="evenodd" d="M632.957 -263.276L660.853 -325.702L728.913 -318.625L764.231 -257.51L722.117 -233.218L713.802 -247.605L734.326 -259.443L673.318 -304.132L681.551 -229.002L702.074 -240.84L710.389 -226.453L668.275 -202.162L632.957 -263.276Z" fill="#DEAE6A"/>
<path fill-rule="evenodd" clip-rule="evenodd" d="M737.443 -323.545L765.338 -385.97L833.399 -378.893L868.716 -317.778L826.602 -293.486L818.288 -307.873L838.812 -319.712L777.803 -364.4L786.036 -289.27L806.56 -301.109L814.874 -286.722L772.76 -262.43L737.443 -323.545Z" fill="#DEAE6A"/>
<path fill-rule="evenodd" clip-rule="evenodd" d="M841.928 -383.813L869.823 -446.238L937.884 -439.161L973.201 -378.046L931.087 -353.754L922.773 -368.141L943.296 -379.979L882.287 -424.668L890.521 -349.538L911.045 -361.376L919.359 -346.989L877.246 -322.698L841.928 -383.813Z" fill="#DEAE6A"/>
<path fill-rule="evenodd" clip-rule="evenodd" d="M946.413 -444.081L974.308 -506.506L1042.37 -499.429L1077.69 -438.315L1035.57 -414.023L1027.26 -428.41L1047.78 -440.248L986.773 -484.936L995.006 -409.806L1015.53 -421.645L1023.84 -407.258L981.731 -382.966L946.413 -444.081Z" fill="#DEAE6A"/>
<path fill-rule="evenodd" clip-rule="evenodd" d="M-85.8835 783.008L-17.8231 790.085L10.0723 727.66L-25.2453 666.545L-67.36 690.838L-59.0459 705.224L-38.522 693.386L-30.2888 768.516L-91.2977 723.828L-70.7738 711.989L-79.0879 697.602L-121.201 721.894L-85.8835 783.008Z" fill="#DEAE6A"/>
<path fill-rule="evenodd" clip-rule="evenodd" d="M18.6016 722.74L86.6621 729.818L114.557 667.392L79.2399 606.277L37.1258 630.569L45.4398 644.956L65.9637 633.118L74.1969 708.248L13.188 663.559L33.7119 651.721L25.3979 637.334L-16.716 661.626L18.6016 722.74Z" fill="#DEAE6A"/>
<path fill-rule="evenodd" clip-rule="evenodd" d="M123.087 662.472L191.148 669.549L219.043 607.124L183.726 546.009L141.611 570.301L149.925 584.688L170.449 572.85L178.682 647.98L117.673 603.291L138.197 591.453L129.883 577.066L87.7697 601.357L123.087 662.472Z" fill="#DEAE6A"/>
<path fill-rule="evenodd" clip-rule="evenodd" d="M227.572 602.204L295.633 609.281L323.528 546.856L288.211 485.741L246.096 510.033L254.411 524.42L274.934 512.582L283.168 587.712L222.159 543.023L242.683 531.185L234.369 516.798L192.255 541.089L227.572 602.204Z" fill="#DEAE6A"/>
<path fill-rule="evenodd" clip-rule="evenodd" d="M332.057 541.936L400.118 549.013L428.013 486.588L392.696 425.473L350.581 449.765L358.895 464.152L379.419 452.314L387.652 527.444L326.643 482.755L347.167 470.917L338.853 456.53L296.74 480.821L332.057 541.936Z" fill="#DEAE6A"/>
<path fill-rule="evenodd" clip-rule="evenodd" d="M436.543 481.668L504.603 488.745L532.499 426.32L497.181 365.205L455.067 389.497L463.381 403.884L483.905 392.045L492.138 467.175L431.129 422.487L451.653 410.649L443.339 396.262L401.225 420.553L436.543 481.668Z" fill="#DEAE6A"/>
<path fill-rule="evenodd" clip-rule="evenodd" d="M541.028 421.4L609.088 428.477L636.984 366.051L601.666 304.937L505.71 360.285L541.028 421.4ZM535.614 362.219L596.623 406.908L588.39 331.778L567.866 343.616L559.551 329.229L547.823 335.994L556.138 350.381L535.614 362.219Z" fill="#DEAE6A"/>
<path fill-rule="evenodd" clip-rule="evenodd" d="M645.514 361.132L713.574 368.209L741.469 305.783L706.152 244.669L610.196 300.017L645.514 361.132ZM640.1 301.951L701.109 346.639L692.876 271.509L672.352 283.348L664.038 268.961L652.31 275.725L660.624 290.112L640.1 301.951Z" fill="#DEAE6A"/>
<path fill-rule="evenodd" clip-rule="evenodd" d="M749.999 300.864L818.059 307.941L845.954 245.515L810.637 184.401L768.522 208.693L776.836 223.08L797.36 211.241L805.593 286.371L744.584 241.683L765.108 229.844L756.794 215.458L714.681 239.749L749.999 300.864Z" fill="#DEAE6A"/>
<path fill-rule="evenodd" clip-rule="evenodd" d="M854.484 240.595L922.544 247.673L950.44 185.247L915.122 124.133L819.166 179.481L854.484 240.595ZM849.07 181.415L910.079 226.103L901.846 150.973L881.322 162.811L873.008 148.424L861.28 155.189L869.594 169.576L849.07 181.415Z" fill="#DEAE6A"/>
<path fill-rule="evenodd" clip-rule="evenodd" d="M958.969 180.327L1027.03 187.405L1054.92 124.979L1019.61 63.8646L977.492 88.1567L985.806 102.544L1006.33 90.7051L1014.56 165.835L953.554 121.147L974.078 109.308L965.764 94.9215L923.651 119.213L958.969 180.327Z" fill="#DEAE6A"/>
<path fill-rule="evenodd" clip-rule="evenodd" d="M1063.45 120.059L1131.51 127.136L1159.41 64.7109L1124.09 3.59637L1028.14 58.9446L1063.45 120.059ZM1058.04 60.8784L1119.05 105.567L1110.82 30.4368L1090.29 42.2752L1081.98 27.8882L1070.25 34.6531L1078.56 49.04L1058.04 60.8784Z" fill="#DEAE6A"/>
<path fill-rule="evenodd" clip-rule="evenodd" d="M1167.94 59.7911L1236 66.8684L1263.9 4.44293L1228.58 -56.6716L1186.46 -32.3795L1194.78 -17.9928L1215.3 -29.8312L1223.53 45.2988L1162.53 0.610352L1183.05 -11.228L1174.73 -25.6147L1132.62 -1.32343L1167.94 59.7911Z" fill="#DEAE6A"/>
<path fill-rule="evenodd" clip-rule="evenodd" d="M1272.42 -0.477051L1340.49 6.60022L1368.38 -55.8253L1333.06 -116.94L1237.11 -61.5916L1272.42 -0.477051ZM1267.01 -59.6578L1328.02 -14.9694L1319.79 -90.0994L1299.26 -78.261L1290.95 -92.6479L1279.22 -85.8831L1287.54 -71.4962L1267.01 -59.6578Z" fill="#DEAE6A"/>
<path fill-rule="evenodd" clip-rule="evenodd" d="M-511 167.911L-483.105 105.485L-415.044 112.563L-379.727 173.677L-421.841 197.969L-430.155 183.582L-409.631 171.744L-470.64 127.056L-462.407 202.186L-441.883 190.347L-433.569 204.734L-475.682 229.026L-511 167.911Z" fill="#DEAE6A"/>
<path fill-rule="evenodd" clip-rule="evenodd" d="M-406.515 107.643L-378.62 45.2174L-310.559 52.2947L-275.242 113.409L-371.197 168.758L-406.515 107.643ZM-357.922 141.918L-366.156 66.7876L-305.147 111.476L-325.671 123.314L-317.357 137.701L-329.084 144.466L-337.399 130.079L-357.922 141.918Z" fill="#DEAE6A"/>
<path fill-rule="evenodd" clip-rule="evenodd" d="M-302.029 47.3748L-274.134 -15.0508L-206.074 -7.97351L-170.756 53.1411L-212.87 77.433L-221.184 63.0461L-200.66 51.2078L-261.669 6.51929L-253.436 81.6493L-232.912 69.8109L-224.598 84.1978L-266.712 108.489L-302.029 47.3748Z" fill="#DEAE6A"/>
<path fill-rule="evenodd" clip-rule="evenodd" d="M-197.544 -12.8933L-169.649 -75.3188L-101.589 -68.2415L-66.271 -7.12695L-162.227 48.2213L-197.544 -12.8933ZM-148.952 21.3813L-157.185 -53.7486L-96.176 -9.06024L-116.7 2.7782L-108.386 17.1651L-120.114 23.9299L-128.428 9.54291L-148.952 21.3813Z" fill="#DEAE6A"/>
<path fill-rule="evenodd" clip-rule="evenodd" d="M-93.0588 -73.1615L-65.1635 -135.587L2.89697 -128.51L38.2147 -67.3951L-3.89966 -43.1033L-12.2136 -57.4901L8.31024 -69.3284L-52.6986 -114.017L-44.4655 -38.887L-23.9416 -50.7253L-15.6276 -36.3385L-57.7412 -12.0469L-93.0588 -73.1615Z" fill="#DEAE6A"/>
<path fill-rule="evenodd" clip-rule="evenodd" d="M11.4262 -133.43L39.3216 -195.855L107.382 -188.778L142.7 -127.663L46.7438 -72.3149L11.4262 -133.43ZM60.0189 -99.1548L51.7858 -174.285L112.795 -129.596L92.2708 -117.758L100.585 -103.371L88.8569 -96.6063L80.5428 -110.993L60.0189 -99.1548Z" fill="#DEAE6A"/>
<path fill-rule="evenodd" clip-rule="evenodd" d="M115.912 -193.698L143.807 -256.123L211.868 -249.046L247.185 -187.931L151.229 -132.583L115.912 -193.698ZM164.505 -159.423L156.271 -234.553L217.28 -189.865L196.756 -178.026L205.071 -163.639L193.343 -156.875L185.029 -171.262L164.505 -159.423Z" fill="#DEAE6A"/>
<path fill-rule="evenodd" clip-rule="evenodd" d="M220.397 -253.966L248.292 -316.391L316.353 -309.314L351.67 -248.199L309.556 -223.908L301.242 -238.294L321.766 -250.133L260.757 -294.821L268.99 -219.691L289.514 -231.53L297.828 -217.143L255.714 -192.851L220.397 -253.966Z" fill="#DEAE6A"/>
<path fill-rule="evenodd" clip-rule="evenodd" d="M324.883 -314.234L352.778 -376.659L420.838 -369.582L456.156 -308.468L360.2 -253.119L324.883 -314.234ZM373.475 -279.959L365.242 -355.089L426.251 -310.401L405.727 -298.563L414.041 -284.176L402.313 -277.411L393.999 -291.798L373.475 -279.959Z" fill="#DEAE6A"/>
<path fill-rule="evenodd" clip-rule="evenodd" d="M429.367 -374.502L457.263 -436.928L525.323 -429.85L560.641 -368.736L518.527 -344.444L510.213 -358.831L530.737 -370.669L469.728 -415.358L477.961 -340.228L498.485 -352.066L506.799 -337.679L464.685 -313.387L429.367 -374.502Z" fill="#DEAE6A"/>
<path fill-rule="evenodd" clip-rule="evenodd" d="M533.853 -434.77L561.748 -497.195L629.808 -490.118L665.126 -429.004L623.012 -404.712L614.698 -419.099L635.222 -430.937L574.213 -475.625L582.446 -400.495L602.97 -412.334L611.284 -397.947L569.17 -373.655L533.853 -434.77Z" fill="#DEAE6A"/>
<path fill-rule="evenodd" clip-rule="evenodd" d="M638.338 -495.038L666.234 -557.464L734.294 -550.386L769.612 -489.272L727.497 -464.98L719.183 -479.367L739.707 -491.205L678.698 -535.894L686.932 -460.764L707.455 -472.602L715.77 -458.215L673.656 -433.924L638.338 -495.038Z" fill="#DEAE6A"/>
<path fill-rule="evenodd" clip-rule="evenodd" d="M742.823 -555.306L770.719 -617.732L838.779 -610.655L874.097 -549.54L831.982 -525.248L823.668 -539.635L844.192 -551.473L783.183 -596.162L791.416 -521.032L811.94 -532.87L820.254 -518.483L778.141 -494.192L742.823 -555.306Z" fill="#DEAE6A"/>
<path fill-rule="evenodd" clip-rule="evenodd" d="M847.308 -615.574L875.204 -678L943.264 -670.923L978.582 -609.808L936.467 -585.516L928.153 -599.903L948.677 -611.742L887.668 -656.43L895.901 -581.3L916.425 -593.138L924.74 -578.751L882.626 -554.46L847.308 -615.574Z" fill="#DEAE6A"/>
</g>
</svg>
