<svg width="485" height="485" viewBox="0 0 485 485" fill="none" xmlns="http://www.w3.org/2000/svg">
<g clip-path="url(#clip0_3829_21516)">
<g clip-path="url(#clip1_3829_21516)">
<g filter="url(#filter0_f_3829_21516)">
<ellipse cx="261.052" cy="471.086" rx="106.011" ry="127.213" transform="rotate(-90 261.052 471.086)" fill="#FED7A2"/>
</g>
<g filter="url(#filter1_f_3829_21516)">
<ellipse cx="74.8702" cy="434.313" rx="142.783" ry="162.992" transform="rotate(-90 74.8702 434.313)" fill="#324841"/>
</g>
<g filter="url(#filter2_f_3829_21516)">
<ellipse cx="182.672" cy="143.617" rx="75.407" ry="116.763" transform="rotate(-53.231 182.672 143.617)" fill="#00FF47"/>
</g>
<g filter="url(#filter3_f_3829_21516)">
<ellipse cx="62.624" cy="318.879" rx="194.677" ry="94.4369" transform="rotate(-146.83 62.624 318.879)" fill="#06774C"/>
</g>
<g filter="url(#filter4_f_3829_21516)">
<path d="M302.793 334.368C233.088 329.73 98.4514 285.329 182.872 231.432C284.84 229.835 292.898 142.852 362.603 147.49C432.307 152.129 438.768 196.016 435.294 248.228C431.82 300.44 372.497 339.006 302.793 334.368Z" fill="#FEE9CB"/>
</g>
<g filter="url(#filter5_f_3829_21516)">
<ellipse cx="478.083" cy="437.239" rx="73.2355" ry="166.11" transform="rotate(-119.65 478.083 437.239)" fill="#00FF47"/>
</g>
<g filter="url(#filter6_f_3829_21516)">
<ellipse cx="353.472" cy="126.064" rx="174.587" ry="105.758" transform="rotate(-139.553 353.472 126.064)" fill="#06774C"/>
</g>
<g filter="url(#filter7_f_3829_21516)">
<ellipse cx="137.676" cy="99.2816" rx="137.676" ry="99.2816" transform="matrix(0.640241 -0.768174 0.669673 0.742656 323 258.837)" fill="#324841"/>
</g>
</g>
<g filter="url(#filter8_f_3829_21516)">
<path d="M475.138 104.935L457.599 101.287L447.109 115.85L450.772 133.813L467.839 139.643L461.984 119.747L475.138 104.935Z" fill="#00FF47"/>
<rect width="13.3735" height="18.8241" transform="matrix(-0.981627 0.190809 0.190809 0.981627 72.3872 218.966)" fill="#03748E"/>
<rect width="8.45608" height="15.3818" transform="matrix(-0.529919 0.848048 0.848048 0.529919 269.96 236.176)" fill="#F202B2"/>
<rect width="29.1095" height="9.97263" transform="matrix(-0.987688 -0.156434 -0.156434 0.987688 106.467 153.072)" fill="#F202B2" fill-opacity="0.9"/>
<rect width="29.6012" height="14.8901" transform="matrix(-0.798635 -0.601815 -0.601815 0.798635 6.65527 311.044)" fill="#F202B2" fill-opacity="0.75"/>
<rect width="6.98084" height="18.3323" transform="matrix(0.97437 -0.224951 -0.224951 -0.97437 263.827 317.314)" fill="#03748E"/>
<rect width="21.2415" height="11.4479" transform="matrix(0.71934 -0.694658 -0.694658 -0.71934 -10.0649 356.777)" fill="#F28A02" fill-opacity="0.9"/>
<rect width="16.324" height="19.3158" transform="matrix(0.990268 0.139173 0.139173 -0.990268 206.292 216.015)" fill="#03748E" fill-opacity="0.65"/>
<rect width="9.93132" height="14.8901" transform="matrix(0.694658 -0.71934 -0.71934 -0.694658 35.5063 237.158)" fill="#00FF47"/>
<rect width="32.5517" height="15.8736" transform="matrix(-0.992546 -0.121869 -0.121869 0.992546 397.582 204.351)" fill="#03748E"/>
<rect width="6.98084" height="18.3323" transform="matrix(0.882948 -0.469472 -0.469472 -0.882948 448.231 186.509)" fill="#F202B2"/>
<rect width="35.9939" height="16.3653" transform="matrix(-0.75471 0.656059 0.656059 0.75471 92.6982 334.526)" fill="#00FF47"/>
<rect width="37.4692" height="18.8241" transform="matrix(0.996195 -0.0871557 -0.0871557 -0.996195 459.542 328.624)" fill="#F202B2" fill-opacity="0.45"/>
<circle cx="5.44364" cy="5.44364" r="5.44364" transform="matrix(-1 0 0 1 301.199 351.736)" fill="#F28A02" fill-opacity="0.75"/>
<circle cx="3.23078" cy="3.23078" r="3.23078" transform="matrix(-1 0 0 1 209.734 166.348)" fill="#F202B2" fill-opacity="0.45"/>
<circle cx="5.44364" cy="5.44364" r="5.44364" transform="matrix(-1 0 0 1 15.9863 34.5596)" fill="#00FF47"/>
<circle cx="3.9684" cy="3.9684" r="3.9684" transform="matrix(-1 0 0 1 450.803 277.411)" fill="#06774C" fill-opacity="0.9"/>
<circle cx="2.9849" cy="2.9849" r="2.9849" transform="matrix(-1 0 0 1 148.758 193.885)" fill="#00FF47"/>
<circle cx="2.73903" cy="2.73903" r="2.73903" transform="matrix(-1 0 0 1 406.433 330.59)" fill="#F202B2" fill-opacity="0.75"/>
<circle cx="2.73903" cy="2.73903" r="2.73903" transform="matrix(-1 0 0 1 170.395 442.217)" fill="#F202B2" fill-opacity="0.35"/>
<circle cx="4.95189" cy="4.95189" r="4.95189" transform="matrix(-1 0 0 1 266.518 240.112)" fill="#F28A02" fill-opacity="0.75"/>
<circle cx="3.9684" cy="3.9684" r="3.9684" transform="matrix(-1 0 0 1 329.721 364.522)" fill="#F28A02" fill-opacity="0.45"/>
<circle cx="2.73903" cy="2.73903" r="2.73903" transform="matrix(-1 0 0 1 5.16797 266.172)" fill="#03748E" fill-opacity="0.45"/>
<circle cx="7.41063" cy="7.41063" r="7.41063" transform="matrix(-1 0 0 1 252.516 450.086)" fill="#06774C" fill-opacity="0.45"/>
<circle cx="7.16475" cy="7.16475" r="7.16475" transform="matrix(-1 0 0 1 77.9463 434.351)" fill="#06774C" fill-opacity="0.65"/>
<circle cx="7.16475" cy="7.16475" r="7.16475" transform="matrix(-1 0 0 1 476.866 211.515)" fill="#00FF47"/>
<circle cx="7.41063" cy="7.41063" r="7.41063" transform="matrix(-1 0 0 1 72.5366 171.265)" fill="#00FF47"/>
<path d="M219.147 18.332L223.891 15.593V10.1149L219.147 7.37591L214.402 10.1149V15.593L219.147 18.332Z" fill="#03748E" fill-opacity="0.75"/>
<path d="M251.935 164.974L256.864 153.361L245.252 148.432L240.323 160.045L251.935 164.974Z" fill="#03748E" fill-opacity="0.85"/>
<path d="M294.003 78.4809L308.209 83.3724L305.342 68.6239L294.003 78.4809Z" fill="#06774C" fill-opacity="0.9"/>
<path d="M367.239 145.273L359.381 143.02L354.81 149.796L359.843 156.238L367.524 153.442L367.239 145.273Z" fill="#06774C" fill-opacity="0.85"/>
<path d="M94.1398 177.351L87.222 171.337L78.5552 174.321L76.8063 183.319L83.724 189.333L92.3908 186.349L94.1398 177.351Z" fill="#F28A02" fill-opacity="0.85"/>
<path d="M394.258 462.545L402.945 461.478L404.615 452.887L396.96 448.644L390.559 454.613L394.258 462.545Z" fill="#F28A02" fill-opacity="0.6"/>
<path d="M281.247 159.84L276.815 165.513L279.512 172.188L286.641 173.19L291.073 167.517L288.376 160.842L281.247 159.84Z" fill="#00FF47"/>
<path d="M335.176 166.294L342.482 166.422L344.861 159.513L339.026 155.116L333.04 159.307L335.176 166.294Z" fill="#F202B2" fill-opacity="0.9"/>
<path d="M178.044 326.761L193.953 331.931L190.475 315.568L178.044 326.761Z" fill="#03748E" fill-opacity="0.9"/>
<path d="M7.47297 85.4309L6.99321 71.6923L-4.66485 78.9771L7.47297 85.4309Z" fill="#06774C" fill-opacity="0.9"/>
<path d="M101.49 285.444L94.0362 271.427L85.6231 284.89L101.49 285.444Z" fill="#F202B2" fill-opacity="0.65"/>
<path d="M212.344 318.446L213.071 312.521L208.304 308.928L202.808 311.261L202.081 317.186L206.848 320.779L212.344 318.446Z" fill="#00FF47"/>
<path d="M338.971 85.8317L355.491 79.8191L342.024 68.519L338.971 85.8317Z" fill="#00FF47"/>
<path d="M265.428 330.412L270.43 331.941L270.522 337.171L273.522 332.886L278.524 334.416L275.376 330.238L278.376 325.954L273.43 327.657L270.283 323.479L270.374 328.709L265.428 330.412Z" fill="#00FF47"/>
<path d="M93.2004 113.162L91.8802 108.864L96.1339 107.405L91.7511 106.399L92.6146 101.986L89.552 105.279L86.1619 102.324L87.4821 106.623L83.2285 108.081L87.6112 109.088L86.7477 113.501L89.8103 110.208L93.2004 113.162Z" fill="#F28A02" fill-opacity="0.75"/>
<path d="M207.219 39.7725L211.938 38.7095L215.817 41.6001L214.754 36.8808L217.645 33.0019L212.925 34.0649L209.046 31.1743L210.109 35.8936L207.219 39.7725Z" fill="#F28A02" fill-opacity="0.35"/>
<path d="M471.421 197.06L475.125 197.915L475.457 201.702L477.415 198.444L481.118 199.299L478.625 196.43L480.582 193.171L477.083 194.657L474.589 191.788L474.921 195.575L471.421 197.06Z" fill="#F202B2" fill-opacity="0.75"/>
<path d="M309.568 84.3625L313.101 90.5596L310.697 97.2761L316.894 93.7422L323.611 96.1463L320.077 89.9493L322.481 83.2327L316.284 86.7666L309.568 84.3625Z" fill="#F28A02" fill-opacity="0.35"/>
<path d="M183.481 461.363L188.642 460.573L192.6 463.977L191.811 458.817L195.214 454.859L190.054 455.648L186.096 452.244L186.885 457.405L183.481 461.363Z" fill="#06774C" fill-opacity="0.85"/>
<path d="M362.074 265.243L357.718 266.921L355.899 262.622L355.175 267.233L350.543 266.659L354.174 269.592L351.36 273.316L355.716 271.638L357.534 275.937L358.259 271.326L362.891 271.9L359.26 268.967L362.074 265.243Z" fill="#06774C" fill-opacity="0.9"/>
<path d="M127.054 245.967L133.412 246.334L137.272 251.399L137.639 245.042L142.705 241.182L136.347 240.815L132.487 235.749L132.12 242.107L127.054 245.967Z" fill="#F28A02" fill-opacity="0.6"/>
<path d="M142.343 114.645L145.867 109.42L151.926 111.157L148.046 106.191L151.57 100.966L145.648 103.122L141.767 98.1552L141.987 104.454L136.065 106.609L142.123 108.346L142.343 114.645Z" fill="#F28A02" fill-opacity="0.35"/>
<path d="M409.058 111.992L404.274 111.062L403.68 106.225L401.318 110.487L396.534 109.558L399.858 113.122L397.495 117.384L401.912 115.324L405.235 118.888L404.641 114.051L409.058 111.992Z" fill="#03748E" fill-opacity="0.9"/>
<path d="M148.873 358.926L153.756 360.8L153.482 366.023L156.774 361.959L161.657 363.833L158.808 359.446L162.1 355.381L157.048 356.735L154.199 352.349L153.925 357.572L148.873 358.926Z" fill="#F202B2" fill-opacity="0.75"/>
<path d="M80.6737 483.156L80.6737 478.819L84.7988 477.479L80.6737 476.138L80.6737 471.801L78.1243 475.31L73.9993 473.97L76.5487 477.479L73.9993 480.988L78.1243 479.647L80.6737 483.156Z" fill="#03748E" fill-opacity="0.65"/>
<path d="M113.354 283.529L117.286 282.175L119.789 285.497L119.716 281.339L123.648 279.985L119.671 278.769L119.599 274.611L117.213 278.017L113.236 276.801L115.739 280.123L113.354 283.529Z" fill="#F28A02" fill-opacity="0.75"/>
</g>
<path d="M-24.7373 80.4785L-6.43861 76.6729L4.50586 91.8666L0.683977 110.607L-17.1225 116.69L-11.0133 95.9317L-24.7373 80.4785Z" fill="#00FF47"/>
<rect x="395.451" y="199.447" width="13.9526" height="19.6391" transform="rotate(11 395.451 199.447)" fill="#03748E"/>
<rect x="176.949" y="263.799" width="8.8222" height="16.0478" transform="rotate(58 176.949 263.799)" fill="#F202B2"/>
<rect x="359.895" y="130.7" width="30.3698" height="10.4044" transform="rotate(-9 359.895 130.7)" fill="#F202B2" fill-opacity="0.9"/>
<rect x="440.955" y="276.915" width="30.8828" height="15.5348" transform="rotate(-37 440.955 276.915)" fill="#F202B2" fill-opacity="0.75"/>
<rect x="195.723" y="302.054" width="7.28309" height="19.1261" transform="rotate(-167 195.723 302.054)" fill="#03748E"/>
<rect x="458.398" y="324.627" width="22.1612" height="11.9435" transform="rotate(-136 458.398 324.627)" fill="#F28A02" fill-opacity="0.9"/>
<rect x="185.852" y="182.838" width="17.0308" height="20.1521" transform="rotate(172 185.852 182.838)" fill="#03748E" fill-opacity="0.65"/>
<rect x="433.929" y="218.429" width="10.3613" height="15.5348" transform="rotate(-134 433.929 218.429)" fill="#00FF47"/>
<rect x="56.1763" y="184.201" width="33.9611" height="16.5609" transform="rotate(-7 56.1763 184.201)" fill="#03748E"/>
<rect x="3.33398" y="165.586" width="7.28309" height="19.1261" transform="rotate(-152 3.33398 165.586)" fill="#F202B2"/>
<rect x="374.261" y="320.012" width="37.5523" height="17.0739" transform="rotate(41 374.261 320.012)" fill="#00FF47"/>
<circle cx="162.411" cy="343.646" r="5.67933" fill="#F28A02" fill-opacity="0.75"/>
<circle cx="255.528" cy="147.921" r="3.37066" fill="#F202B2" fill-opacity="0.45"/>
<circle cx="459.973" cy="12.736" r="5.67933" fill="#00FF47"/>
<circle cx="4.79109" cy="264.565" r="4.14022" fill="#06774C" fill-opacity="0.9"/>
<circle cx="318.888" cy="176.395" r="3.11414" fill="#00FF47"/>
<circle cx="49.8" cy="318.764" r="2.85762" fill="#F202B2" fill-opacity="0.75"/>
<circle cx="296.058" cy="435.222" r="2.85762" fill="#F202B2" fill-opacity="0.35"/>
<circle cx="479.725" cy="399.824" r="4.90977" fill="#F202B2" fill-opacity="0.35"/>
<circle cx="135.815" cy="168.048" r="5.16629" fill="#F28A02" fill-opacity="0.75"/>
<circle cx="131.116" cy="355.447" r="4.14022" fill="#F28A02" fill-opacity="0.45"/>
<circle cx="468.439" cy="251.557" r="2.85762" fill="#03748E" fill-opacity="0.45"/>
<circle cx="215.254" cy="448.306" r="7.73148" fill="#06774C" fill-opacity="0.45"/>
<circle cx="397.126" cy="431.633" r="7.47496" fill="#06774C" fill-opacity="0.65"/>
<circle cx="403.026" cy="157.413" r="7.73148" fill="#00FF47"/>
<path d="M208.129 143.117L202.986 131.002L215.102 125.86L220.244 137.975L208.129 143.117Z" fill="#03748E" fill-opacity="0.85"/>
<path d="M164.24 52.8808L149.419 57.9841L152.41 42.597L164.24 52.8808Z" fill="#06774C" fill-opacity="0.9"/>
<path d="M87.8339 122.565L96.0315 120.214L100.8 127.284L95.55 134.004L87.5363 131.088L87.8339 122.565Z" fill="#06774C" fill-opacity="0.85"/>
<path d="M372.756 156.031L379.974 149.757L389.016 152.871L390.841 162.258L383.623 168.532L374.581 165.419L372.756 156.031Z" fill="#F28A02" fill-opacity="0.85"/>
<path d="M59.644 453.575L50.5809 452.462L48.8386 443.499L56.8249 439.072L63.503 445.3L59.644 453.575Z" fill="#F28A02" fill-opacity="0.6"/>
<path d="M177.548 137.763L182.172 143.681L179.358 150.645L171.921 151.691L167.297 145.772L170.11 138.808L177.548 137.763Z" fill="#00FF47"/>
<path d="M121.284 144.495L113.662 144.628L111.18 137.42L117.268 132.833L123.513 137.205L121.284 144.495Z" fill="#F202B2" fill-opacity="0.9"/>
<path d="M285.219 311.91L268.621 317.303L272.249 300.232L285.219 311.91Z" fill="#03748E" fill-opacity="0.9"/>
<path d="M463.176 60.1296L463.677 45.7962L475.839 53.3964L463.176 60.1296Z" fill="#06774C" fill-opacity="0.9"/>
<path d="M365.088 268.805L372.864 254.18L381.642 268.227L365.088 268.805Z" fill="#F202B2" fill-opacity="0.65"/>
<path d="M249.435 303.238L248.676 297.056L253.65 293.308L259.384 295.741L260.143 301.923L255.168 305.671L249.435 303.238Z" fill="#00FF47"/>
<path d="M117.325 60.5497L100.09 54.2768L114.14 42.4875L117.325 60.5497Z" fill="#00FF47"/>
<path d="M194.053 315.722L188.834 317.317L188.739 322.773L185.609 318.303L180.39 319.899L183.674 315.54L180.544 311.07L185.704 312.847L188.988 308.489L188.893 313.945L194.053 315.722Z" fill="#00FF47"/>
<path d="M373.737 89.0638L375.114 84.579L370.676 83.0572L375.249 82.0076L374.348 77.4035L377.543 80.8386L381.08 77.7563L379.703 82.241L384.141 83.7628L379.568 84.8124L380.469 89.4166L377.274 85.9814L373.737 89.0638Z" fill="#F28A02" fill-opacity="0.75"/>
<path d="M254.782 12.4953L249.858 11.3862L245.812 14.402L246.921 9.47837L243.905 5.4315L248.828 6.54053L252.875 3.52477L251.766 8.44838L254.782 12.4953Z" fill="#F28A02" fill-opacity="0.35"/>
<path d="M148.001 59.0161L144.314 65.4815L146.822 72.4888L140.357 68.802L133.35 71.3101L137.036 64.8448L134.528 57.8374L140.994 61.5243L148.001 59.0161Z" fill="#F28A02" fill-opacity="0.35"/>
<path d="M279.547 452.338L274.163 451.515L270.034 455.066L270.857 449.682L267.306 445.553L272.69 446.376L276.819 442.825L275.996 448.209L279.547 452.338Z" fill="#06774C" fill-opacity="0.85"/>
<path d="M93.2226 247.727L97.767 249.478L99.6642 244.992L100.42 249.803L105.253 249.204L101.464 252.264L104.4 256.15L99.8558 254.399L97.9585 258.884L97.2027 254.073L92.3698 254.672L96.1583 251.612L93.2226 247.727Z" fill="#06774C" fill-opacity="0.9"/>
<path d="M338.417 227.619L331.784 228.002L327.757 233.287L327.374 226.654L322.089 222.627L328.722 222.244L332.749 216.959L333.132 223.592L338.417 227.619Z" fill="#F28A02" fill-opacity="0.6"/>
<path d="M322.466 90.6117L318.789 85.1606L312.469 86.973L316.517 81.7917L312.84 76.3406L319.019 78.5894L323.067 73.4081L322.837 79.9793L329.016 82.2281L322.696 84.0405L322.466 90.6117Z" fill="#F28A02" fill-opacity="0.35"/>
<path d="M44.2039 87.8424L49.1947 86.8723L49.8143 81.826L52.2792 86.2727L57.27 85.3026L53.8026 89.021L56.2675 93.4677L51.6596 91.3191L48.1922 95.0374L48.8118 89.9911L44.2039 87.8424Z" fill="#03748E" fill-opacity="0.9"/>
<path d="M315.654 345.467L310.559 347.423L310.845 352.872L307.411 348.632L302.316 350.587L305.288 346.011L301.854 341.77L307.125 343.182L310.097 338.606L310.383 344.055L315.654 345.467Z" fill="#F202B2" fill-opacity="0.75"/>
<path d="M386.807 475.075L386.807 470.55L382.503 469.152L386.807 467.754L386.807 463.228L389.466 466.889L393.77 465.491L391.11 469.152L393.77 472.813L389.466 471.414L386.807 475.075Z" fill="#03748E" fill-opacity="0.65"/>
<path d="M352.71 266.807L348.608 265.395L345.997 268.86L346.073 264.522L341.97 263.109L346.119 261.841L346.195 257.503L348.684 261.057L352.833 259.788L350.222 263.253L352.71 266.807Z" fill="#F28A02" fill-opacity="0.75"/>
</g>
<defs>
<filter id="filter0_f_3829_21516" x="54.3307" y="285.567" width="413.443" height="371.038" filterUnits="userSpaceOnUse" color-interpolation-filters="sRGB">
<feFlood flood-opacity="0" result="BackgroundImageFix"/>
<feBlend mode="normal" in="SourceGraphic" in2="BackgroundImageFix" result="shape"/>
<feGaussianBlur stdDeviation="39.7541" result="effect1_foregroundBlur_3829_21516"/>
</filter>
<filter id="filter1_f_3829_21516" x="-199.433" y="180.218" width="548.606" height="508.19" filterUnits="userSpaceOnUse" color-interpolation-filters="sRGB">
<feFlood flood-opacity="0" result="BackgroundImageFix"/>
<feBlend mode="normal" in="SourceGraphic" in2="BackgroundImageFix" result="shape"/>
<feGaussianBlur stdDeviation="55.6557" result="effect1_foregroundBlur_3829_21516"/>
</filter>
<filter id="filter2_f_3829_21516" x="-32.5195" y="-60.0752" width="430.382" height="407.385" filterUnits="userSpaceOnUse" color-interpolation-filters="sRGB">
<feFlood flood-opacity="0" result="BackgroundImageFix"/>
<feBlend mode="normal" in="SourceGraphic" in2="BackgroundImageFix" result="shape"/>
<feGaussianBlur stdDeviation="55.6557" result="effect1_foregroundBlur_3829_21516"/>
</filter>
<filter id="filter3_f_3829_21516" x="-219.684" y="74.919" width="564.616" height="487.92" filterUnits="userSpaceOnUse" color-interpolation-filters="sRGB">
<feFlood flood-opacity="0" result="BackgroundImageFix"/>
<feBlend mode="normal" in="SourceGraphic" in2="BackgroundImageFix" result="shape"/>
<feGaussianBlur stdDeviation="55.6557" result="effect1_foregroundBlur_3829_21516"/>
</filter>
<filter id="filter4_f_3829_21516" x="44.6109" y="36" width="502.728" height="410.058" filterUnits="userSpaceOnUse" color-interpolation-filters="sRGB">
<feFlood flood-opacity="0" result="BackgroundImageFix"/>
<feBlend mode="normal" in="SourceGraphic" in2="BackgroundImageFix" result="shape"/>
<feGaussianBlur stdDeviation="55.6557" result="effect1_foregroundBlur_3829_21516"/>
</filter>
<filter id="filter5_f_3829_21516" x="217.899" y="221.983" width="520.369" height="430.512" filterUnits="userSpaceOnUse" color-interpolation-filters="sRGB">
<feFlood flood-opacity="0" result="BackgroundImageFix"/>
<feBlend mode="normal" in="SourceGraphic" in2="BackgroundImageFix" result="shape"/>
<feGaussianBlur stdDeviation="55.6557" result="effect1_foregroundBlur_3829_21516"/>
</filter>
<filter id="filter6_f_3829_21516" x="92.5982" y="-124.204" width="521.747" height="500.537" filterUnits="userSpaceOnUse" color-interpolation-filters="sRGB">
<feFlood flood-opacity="0" result="BackgroundImageFix"/>
<feBlend mode="normal" in="SourceGraphic" in2="BackgroundImageFix" result="shape"/>
<feGaussianBlur stdDeviation="55.6557" result="effect1_foregroundBlur_3829_21516"/>
</filter>
<filter id="filter7_f_3829_21516" x="287.709" y="18.3668" width="379.847" height="416.887" filterUnits="userSpaceOnUse" color-interpolation-filters="sRGB">
<feFlood flood-opacity="0" result="BackgroundImageFix"/>
<feBlend mode="normal" in="SourceGraphic" in2="BackgroundImageFix" result="shape"/>
<feGaussianBlur stdDeviation="39.7541" result="effect1_foregroundBlur_3829_21516"/>
</filter>
<filter id="filter8_f_3829_21516" x="-288.894" y="-8.63574" width="1014.67" height="500.792" filterUnits="userSpaceOnUse" color-interpolation-filters="sRGB">
<feFlood flood-opacity="0" result="BackgroundImageFix"/>
<feBlend mode="normal" in="SourceGraphic" in2="BackgroundImageFix" result="shape"/>
<feGaussianBlur stdDeviation="4.5" result="effect1_foregroundBlur_3829_21516"/>
</filter>
<clipPath id="clip0_3829_21516">
<rect width="485" height="485" fill="white"/>
</clipPath>
<clipPath id="clip1_3829_21516">
<rect width="485" height="485" fill="white" transform="translate(0 485) rotate(-90)"/>
</clipPath>
</defs>
</svg>
